<?xml version="1.0" encoding="utf-8"?>
<!-- Generator: Adobe Illustrator 25.1.0, SVG Export Plug-In . SVG Version: 6.00 Build 0)  -->
<svg version="1.1" id="Layer_1" xmlns="http://www.w3.org/2000/svg" xmlns:xlink="http://www.w3.org/1999/xlink" x="0px" y="0px"
	 viewBox="0 0 988.4 504.4" style="enable-background:new 0 0 988.4 504.4;" xml:space="preserve">
<g id="Layer_2_1_">
	<path d="M369.7,280.9c1.5-6.7,3.5-13.3,6-19.7c2.4-6.6,5.6-12.8,9.4-18.7c3.7-5.8,8.2-11,13.2-15.7s10.9-8.5,17.2-11.2
		c2.7-0.5,5.6-0.9,8.8-1.3c3.1-0.3,6.1-0.9,9.1-1.6c2.8-0.7,5.4-1.7,7.8-3.2c2.3-1.4,4-3.5,4.9-5.9c0.5-1.4,0.7-2.9,0.7-4.3
		c0.1-1.4-0.3-2.8-1-4c-0.9-1.4-1.7-2.9-2.3-4.4c-0.7-2-2.1-3.5-4-4.4c-2.4-1.3-5-2.2-7.6-2.8c-3.2-0.7-6.4-1.2-9.7-1.5
		c-3.5-0.3-6.7-0.4-9.8-0.4c-2.9,0-5.4,0.1-7.6,0.3c-1.7,0.1-3.4,0.4-5.1,0.8c-9,2-17.6,6.4-26.1,13.2s-16,14.8-22.3,23.7
		c-6.3,8.7-11.5,18.2-15.4,28.2c-3.8,9.8-5.7,18.6-5.7,26.5c-0.2,1.3-0.2,2.6-0.2,3.8c0,1.3,0,2.6,0,3.8c0,0.3,0,0.6,0,0.8
		c-8.5,7.5-17.6,14.3-27.3,20.3c-8.8,5.5-26.7,9.7-34.2,9.7H266c-8.2-0.7-13.9-3.8-16.8-9.4c-3.1-6-4.6-12.7-4.5-19.5
		c0-4.2,0.3-8.3,1-12.4c0.7-4.2,1.5-8.4,2.5-12.4c3.6-14.5,9.1-26.9,16.6-37s14.9-15.2,22.5-15.2c0.4-0.1,0.9,0,1.2,0.2
		c0.2,0.2,0.6,0.2,1.2,0.2c2.5,0.4,4.9,0.6,7.4,0.5c5.9,0,10.6-1.3,14.1-3.8s5.2-5.5,5.2-8.8c-0.1-2.5-1-4.9-2.7-6.8
		c-1.8-2.2-5-3.9-9.7-5.3c-3.9-1.3-8-2.3-12.1-2.8c-4-0.5-8.1-0.8-12.1-0.8c-12.9-0.1-25.6,2.7-37.4,8.1
		c-11.6,5.3-22,12.6-30.9,21.7c-8.8,8.9-16,19.4-21.3,30.8c-5.2,11.1-7.9,23.1-7.9,35.3c0,10.8,1.6,20,4.7,27.8
		c2.7,7.1,6.9,13.6,12.1,19.2c4.9,5,10.8,9.1,17.3,11.8c6.5,2.8,13.4,4.8,20.4,5.8c5.2,1,10.5,1.5,15.8,1.5
		c12.2,0.1,24.4-2.4,35.6-7.2c11.6-5,22.5-11.8,32.2-19.9c4.5-3.7,8.8-7.7,12.8-11.9c1.2,3.4,2.8,6.6,4.7,9.6
		c2.8,4.3,6.2,8.2,10.1,11.6c4.6,4,9.6,7.6,14.8,10.8c4.3,2.8,8.9,5,13.8,6.4c4.9,1.5,9.9,2.3,15,2.3c4.4,0,8.8-0.8,12.9-2.5
		c7-3,13.2-7.5,18.3-13.1c5.3-5.8,9.7-12.4,13.2-19.4c3.5-7.1,6.1-14.6,7.8-22.3c1.6-7.1,2.5-14.4,2.5-21.7c0-1.4-0.1-3.3-0.3-5.5
		c-0.2-2.3-0.5-4.6-0.9-6.8c-0.4-2.1-1-4.2-1.8-6.1c-0.5-1.5-1.6-2.7-3-3.3c-0.2-0.3-0.3-0.6-0.3-1s0-0.7-0.3-1
		c-0.3-1.1-0.8-2.2-1.5-3.1c-0.7-0.8-1.5-1.6-2.3-2.4c-0.5-1.4-1.2-2.7-2.1-3.8c-1.2-1.8-2.2-2.6-3.1-2.6l-1.8-3.3
		c-0.5-0.2-1-0.3-1.5-0.2c-1,0-1.5,0.4-1.5,1.2c-0.2,0.3-0.3,0.6-0.2,1c0,0.3,0,0.7,0.1,1s0.1,0.7,0.1,1c1.1,2.8,1.8,5.7,2.1,8.7
		c0.3,3,0.5,5.9,0.6,8.9c-1.1,9.6-3,19.2-5.5,28.5c-2.5,9.2-6,18.2-10.3,26.7c-1.5,3-3.3,6-5.3,8.7c-2.1,2.8-4.5,5.2-7.3,7.3
		c-2,1.6-4.1,2.9-6.5,3.9c-2.7,1.1-5.6,1.6-8.5,1.5c-3,0.1-6-0.9-8.3-3c-2.2-2.1-3.9-4.7-5-7.5c-1.3-3.2-2.1-6.6-2.5-10.1
		s-0.7-7-0.7-10.6c0-2.2,0-4.4,0.2-6.4S369.6,282.2,369.7,280.9z"/>
	<path d="M621.7,280.9c1.5-6.7,3.5-13.3,6-19.7c2.4-6.6,5.6-12.8,9.4-18.7c3.7-5.8,8.2-11,13.2-15.7s10.9-8.5,17.2-11.2
		c2.7-0.5,5.6-0.9,8.8-1.3c3.1-0.3,6.1-0.9,9.1-1.6c2.8-0.7,5.4-1.7,7.8-3.2c2.3-1.4,4-3.5,4.9-5.9c0.5-1.4,0.7-2.9,0.7-4.3
		c0.1-1.4-0.3-2.8-1-4c-0.9-1.4-1.7-2.9-2.3-4.4c-0.7-2-2.1-3.5-4-4.4c-2.4-1.3-5-2.2-7.6-2.8c-3.2-0.7-6.4-1.2-9.7-1.5
		c-3.5-0.3-6.7-0.4-9.8-0.4c-2.9,0-5.4,0.1-7.6,0.3c-1.7,0.1-3.4,0.4-5.1,0.8c-9,2-17.6,6.4-26.1,13.2s-16,14.8-22.3,23.7
		c-6.3,8.7-11.5,18.2-15.4,28.2c-3.8,9.8-5.7,18.6-5.7,26.5c-0.2,1.3-0.2,2.6-0.2,3.8c0,1.2,0,2.4,0,3.6
		c-4.5,6.1-8.9,11.8-13.2,17.2c-6.3,8.1-13.2,15.9-20.4,23.3c-6,6-10.4,9-13.2,9c-0.5,0.1-1-0.1-1.4-0.5c-1.8-1.6-3.2-5.6-4-12
		c-0.9-7.6-1.3-15.2-1.3-22.9c0-6.9,0.1-14.1,0.3-21.5s0.5-14.5,0.8-21.3s0.5-12.8,0.8-18.2s0.5-9.5,0.8-12.3
		c7.2-14.5,14.2-28.2,20.9-41c6.8-12.8,12.9-25.6,18.4-38.4c5.7-13.2,10.6-26.7,14.8-40.5c4.6-15.5,8.1-31.3,10.4-47.3
		c0.8-6,1.2-12,1.2-18c-0.1-13.2-2.6-22.8-7.5-28.8c-4.7-5.8-11.4-8.8-20-8.7H566c-1.3,0-2.6,0.2-3.9,0.5
		C553,2.1,543.9,8.6,534.7,20S517,45.7,509.3,63c-8.3,18.7-15,38-20.1,57.8c-5.5,20.7-9.5,41.8-11.9,63.1
		c-2.5,21.3-3.7,42.8-3.6,64.3c0.2,19.5,1.8,36.4,4.9,50.7s8.2,24.7,15.3,31.3c5.4,5.1,11.4,9.5,17.9,13.1
		c5.6,3.1,11.9,4.6,18.3,4.6c11-0.1,22.6-5.3,35-15.6c7-5.9,14.7-13.8,22.9-23.8c0.7,1.3,1.4,2.5,2.1,3.7c2.8,4.3,6.2,8.2,10.1,11.6
		c4.6,4,9.6,7.6,14.8,10.8c4.3,2.8,8.9,5,13.8,6.4c4.9,1.5,9.9,2.3,15,2.3c4.4,0,8.8-0.8,12.9-2.5c7-3,13.2-7.5,18.3-13.1
		c5.3-5.8,9.7-12.4,13.2-19.4c3.5-7.1,6.1-14.6,7.8-22.3c1.6-7.1,2.5-14.4,2.5-21.7c0-1.4-0.1-3.3-0.3-5.5c-0.2-2.3-0.5-4.6-0.9-6.8
		c-0.4-2.1-1-4.2-1.8-6.1c-0.5-1.5-1.6-2.7-3-3.3c-0.2-0.3-0.3-0.6-0.3-1s0-0.7-0.3-1c-0.3-1.1-0.8-2.2-1.5-3.1
		c-0.7-0.8-1.5-1.6-2.3-2.4c-0.5-1.4-1.2-2.7-2.1-3.8c-1.2-1.8-2.2-2.6-3.1-2.6l-1.8-3.3c-0.5-0.2-1-0.3-1.5-0.2
		c-1,0-1.5,0.4-1.5,1.2c-0.2,0.3-0.3,0.6-0.2,1c0,0.3,0,0.7,0.1,1s0.1,0.7,0.1,1c1.1,2.8,1.8,5.7,2.1,8.7s0.5,5.9,0.6,8.9
		c-1.1,9.6-3,19.2-5.5,28.5c-2.5,9.2-6,18.2-10.3,26.7c-1.5,3-3.3,6-5.3,8.7c-2.1,2.8-4.5,5.2-7.3,7.3c-2,1.6-4.1,2.9-6.5,3.9
		c-2.7,1.1-5.6,1.6-8.5,1.5c-3,0.1-6-0.9-8.3-3c-2.2-2.1-3.9-4.7-5-7.5c-1.3-3.2-2.1-6.6-2.5-10.1s-0.7-7-0.7-10.6
		c0-2.2,0-4.4,0.2-6.4S621.6,282.2,621.7,280.9z M539,141.7c3.2-14.7,7.2-29.8,11.8-45.4s9.5-30.4,14.7-44.2
		c5.2-13.9,10.1-24.5,14.6-31.7c0-0.3,0.1,0.3,0.2,1.9s0.2,3,0.3,4.2c-1.9,13.5-4.5,26.9-7.9,40.2c-3.3,12.6-6.9,25-10.9,37.1
		s-8.3,24.1-13,36c-4.6,11.8-9.6,23.9-15,36.2C534,167.8,535.8,156.4,539,141.7z"/>
	<path d="M985.4,266c-1.9-2.6-3.9-3.8-6-3.7c-1.3,0.1-2.5,0.9-3.5,2.7c-0.5,1-3.4,5.9-5.8,10.9c-4.4,9.2-11.8,19-15.4,23.4
		s-6.6,6.6-8.7,6.7c-0.8,0.1-1.6-0.3-2.1-0.9c-1.1-1.3-1.8-4.1-2-8.4c-0.2-7.4,0.2-14.7,1.1-22c1-9,2.2-18.2,3.6-27.6
		c1.4-9.4,2.8-17.9,4.2-25.6c1-5.3,1.8-10.7,2.2-16.1c0.7-2.1,1-4.3,0.9-6.5c-0.2-4.7-2.3-8.9-6.1-12.7s-8.1-5.6-12.9-5.3
		c-1.3,0.1-2.5,0.1-3.8-0.1c-1.1-0.1-2.3-0.1-3.4-0.1c-1.7,0-3.4,0.6-4.7,1.7c-3.1,2.5-6,7.4-8.7,14.9c-2.9,8.2-5.3,16.5-7,25
		c-0.5,2.5-1,5-1.5,7.5c-2.4,0.5-4.7,1.5-6.7,2.8c-11.5,6.5-26.8,18-39.2,28c-0.4-9.1-2.2-54.8-2.2-56.5c0-1.5,0.2-3.1,0.5-4.6
		s0.4-3,0.4-4.6c-0.1-3-1.3-5.8-3.2-8c-1.8-2-4.1-3.5-6.6-4.3c-2.7-0.9-5.6-1.6-8.5-1.8c-3.1-0.3-6.1-0.5-9.2-0.5
		c-13.9,0.1-27.6,3.1-40.3,8.9c-13.1,5.8-25.4,13.3-36.4,22.4c-10.3,8.4-19.2,18.3-26.3,29.5c-6.7,10.7-10.1,20.9-10.1,30.7
		c0,5.2,12.5,62.1,84,8.8c26.3-19.6,23.8-30.2,27.2-31.7c0.3,4.3,0.5,4.9,0.5,9.2v25.2c-6.1,6.4-43.7,44.4-77.7,89.4
		c-15.6,22.9-30,55-34,76c-3.9,20.7-11.8,65.4,35.9,54c25.1-6,66.1-56,77.2-86.2c12.1-33.1,27.9-70.3,29.7-114.9l-0.2-7l38.4-38.9
		c0,0,1.9-2.9,4-6.8c-0.1,0.6-0.2,1.3-0.2,1.9c-1,8.3-1.3,16.7-1,25c0.5,9.6,1.9,17.4,4.2,23.2c1.9,5.1,4.5,9.8,7.9,14.1
		c2.5,3.1,5.5,5.6,9,7.5c3,1.5,5.5,2.7,7.4,3.6c1.9,0.8,3.9,1.4,5.9,1.7c1.8,0.2,3.6,0.3,5.4,0.2c6.9-0.3,13.6-3.3,20-8.7
		c6.9-6,13-12.9,18.1-20.6c3.3-4.8,5.8-10.2,7.3-15.8c1-1.8,1.5-3.9,1.3-6C988.3,271.7,987.3,268.6,985.4,266z M799.1,249.5
		c-18.6,19.4-41.1,26.5-46,22c-5.2-4.8,10.4-28.2,28-43c25.5-21.5,37.6-24.8,41.6-26.3C828.1,202.5,820.1,227.5,799.1,249.5
		L799.1,249.5z M816.2,366.7c-5.2,14-11.4,27.7-18.3,41c-6.9,13.3-14.8,26-23.6,38c-8.6,11.6-16.6,20-24.3,25.2
		c0.3-11.3,3.3-23.3,8.9-35.9c5.8-13,12.5-25.5,20.1-37.5c7.8-12.4,15.9-24.2,24.3-35.5c8.4-11.3,15.6-21.2,21.7-29.8
		C824.2,341.6,821.3,353.1,816.2,366.7z"/>
	<path d="M928.7,153.2c2.1,3.4,4.6,6.5,7.5,9.3c2.8,2.8,5.8,4.2,8.9,4c5.1-0.2,9.6-2.9,13.6-8c4-4.9,5.9-11.2,5.5-17.5l-0.2-3.6
		c-0.4-8.7-1.9-14.7-4.3-18.1c-2.1-3.2-5.8-5-9.6-4.7c-2.6,0.3-5.1,1-7.6,1.9c-3.5,1.3-6.7,3-9.7,5.2c-3.1,2.2-5.9,4.9-8.1,8
		c-2.2,2.8-3.3,6.3-3.1,9.8C923.6,144.3,926,148.8,928.7,153.2z"/>
	<path d="M182.1,54.5c11,0,17-17,14-19s-123-12-155-6s-10,22-10,22s-18,143-24,182c-5,32.4-12,94-2,108s76.3,7.4,100,2
		c57-13,71-18,74-21s0.8-12.8-8-11c-10,2-30,2-78,3c-6,0.1-31,0-31-6s14-110,14-110c0-3,71,1,78,0s16-19,11-22s-85-4-85-4l17-114
		C97.1,58.5,171.1,54.5,182.1,54.5z"/>
</g>
</svg>
