<svg xmlns="http://www.w3.org/2000/svg" viewBox="0 0 1670 1200"><defs><style>.cls-1{fill:#fff;}</style></defs><g id="Layer_2" data-name="Layer 2"><path class="cls-1" d="M710.47,628.68A156.08,156.08,0,0,1,716.42,609a96.21,96.21,0,0,1,9.38-18.7A83.65,83.65,0,0,1,739,574.61a60.05,60.05,0,0,1,17.18-11.17c2.7-.5,5.62-.91,8.75-1.26a67.74,67.74,0,0,0,9.13-1.62,28.48,28.48,0,0,0,7.85-3.17,11.65,11.65,0,0,0,4.91-5.93,14.63,14.63,0,0,0,.73-4.33,7.12,7.12,0,0,0-1.05-4,31.42,31.42,0,0,1-2.31-4.43,7.75,7.75,0,0,0-4-4.43,30,30,0,0,0-7.64-2.84,67.51,67.51,0,0,0-9.66-1.5q-5.21-.45-9.78-.42-4.32,0-7.62.29a28.86,28.86,0,0,0-5.07.75q-13.44,3-26.06,13.16a119.42,119.42,0,0,0-22.29,23.71,128.68,128.68,0,0,0-15.41,28.24q-5.75,14.71-5.65,26.5a29.34,29.34,0,0,0-.22,3.85c0,1.28,0,2.57,0,3.85,0,.29,0,.57,0,.85a201.5,201.5,0,0,1-27.29,20.34c-8.77,5.51-26.67,9.71-34.25,9.71h-2.48q-12.37-1-16.82-9.38a40.86,40.86,0,0,1-4.46-19.51,80.41,80.41,0,0,1,1-12.42q1-6.35,2.48-12.42,5.43-21.79,16.58-37t22.51-15.2a1.94,1.94,0,0,1,1.24.25c.16.17.57.25,1.24.25a39.94,39.94,0,0,0,7.42.5q8.91,0,14.11-3.78t5.19-8.83a10.6,10.6,0,0,0-2.72-6.81q-2.73-3.27-9.65-5.3a61.15,61.15,0,0,0-12.12-2.77,100.89,100.89,0,0,0-12.13-.76,88.53,88.53,0,0,0-37.36,8.07,103.42,103.42,0,0,0-30.93,21.7,108.55,108.55,0,0,0-21.28,30.77,83.26,83.26,0,0,0-7.92,35.32q0,16.15,4.7,27.75a58.07,58.07,0,0,0,12.12,19.17,54,54,0,0,0,17.33,11.85A79.26,79.26,0,0,0,577.67,688a84.78,84.78,0,0,0,15.83,1.51,89.78,89.78,0,0,0,35.63-7.19,130.52,130.52,0,0,0,32.17-19.93,168.57,168.57,0,0,0,12.83-11.89,46.78,46.78,0,0,0,4.7,9.61,54.57,54.57,0,0,0,10.11,11.6,119,119,0,0,0,14.81,10.85A52.86,52.86,0,0,0,717.51,689a49.39,49.39,0,0,0,15,2.32,33.63,33.63,0,0,0,12.93-2.49,52,52,0,0,0,18.31-13.11,82.37,82.37,0,0,0,13.19-19.44A100.47,100.47,0,0,0,784.78,634a97,97,0,0,0,2.51-21.66c0-1.44-.12-3.29-.3-5.53a67.33,67.33,0,0,0-.94-6.85,28.56,28.56,0,0,0-1.82-6.12,5.87,5.87,0,0,0-3-3.35,1.38,1.38,0,0,1-.26-1,1.36,1.36,0,0,0-.26-1,8,8,0,0,0-1.54-3.11,30.19,30.19,0,0,0-2.31-2.39,13.31,13.31,0,0,0-2.06-3.84c-1.2-1.76-2.22-2.63-3.06-2.63l-1.8-3.35a3.67,3.67,0,0,0-1.53-.23c-1,0-1.52.41-1.51,1.21a1.33,1.33,0,0,0-.25,1,3.52,3.52,0,0,0,.13,1,4.05,4.05,0,0,1,.14,1,33.13,33.13,0,0,1,2.09,8.65,85.81,85.81,0,0,1,.57,8.9,193.48,193.48,0,0,1-5.5,28.54,134.41,134.41,0,0,1-10.34,26.65,57.8,57.8,0,0,1-5.27,8.69,33.79,33.79,0,0,1-7.31,7.26,27.84,27.84,0,0,1-6.45,3.89,21.87,21.87,0,0,1-8.49,1.5,11.5,11.5,0,0,1-8.28-3,20.37,20.37,0,0,1-5-7.54,40.42,40.42,0,0,1-2.49-10.09,92,92,0,0,1-.71-10.58c0-2.25.05-4.37.2-6.38S710.31,630,710.47,628.68Z"/><path class="cls-1" d="M962.47,628.68A156.08,156.08,0,0,1,968.42,609a96.21,96.21,0,0,1,9.38-18.7A83.65,83.65,0,0,1,991,574.61a60.05,60.05,0,0,1,17.18-11.17c2.7-.5,5.62-.91,8.75-1.26a67.74,67.74,0,0,0,9.13-1.62,28.48,28.48,0,0,0,7.85-3.17,11.65,11.65,0,0,0,4.91-5.93,14.63,14.63,0,0,0,.73-4.33,7.12,7.12,0,0,0-1-4,31.42,31.42,0,0,1-2.31-4.43,7.75,7.75,0,0,0-4-4.43,30,30,0,0,0-7.64-2.84,67.51,67.51,0,0,0-9.66-1.5q-5.21-.45-9.78-.42-4.32,0-7.62.29a28.86,28.86,0,0,0-5.07.75q-13.44,3-26.06,13.16a119.42,119.42,0,0,0-22.29,23.71,128.68,128.68,0,0,0-15.41,28.24q-5.75,14.71-5.65,26.5a29.34,29.34,0,0,0-.22,3.85c0,1.2,0,2.4,0,3.6q-6.74,9.11-13.17,17.23a273.6,273.6,0,0,1-20.38,23.27q-9.06,9-13.17,9.05a1.75,1.75,0,0,1-1.37-.46q-2.76-2.34-4-12a199.49,199.49,0,0,1-1.31-22.9q-.07-10.38.3-21.49t.76-21.26q.38-10.15.78-18.19t.83-12.28q10.79-21.8,20.92-41t18.44-38.37a377.89,377.89,0,0,0,14.77-40.48,336,336,0,0,0,10.39-47.29,134.6,134.6,0,0,0,1.24-18q-.15-19.85-7.52-28.77t-20.15-8.84l-3.42,0a19.41,19.41,0,0,0-3.88.49q-13.68,2.46-27.48,19.54T850,410.84a368,368,0,0,0-20.12,57.75A430.07,430.07,0,0,0,818,531.72,553.84,553.84,0,0,0,814.36,596q.23,29.28,4.94,50.74T834.59,678a89,89,0,0,0,17.9,13.11,37.67,37.67,0,0,0,18.29,4.61q16.44-.1,35-15.57,10.57-8.79,22.87-23.77c.66,1.27,1.37,2.52,2.14,3.73a54.57,54.57,0,0,0,10.11,11.6,119,119,0,0,0,14.81,10.85A52.86,52.86,0,0,0,969.51,689a49.39,49.39,0,0,0,15,2.32,33.63,33.63,0,0,0,12.93-2.49,52,52,0,0,0,18.31-13.11,82.37,82.37,0,0,0,13.19-19.44,100.47,100.47,0,0,0,7.84-22.31,97,97,0,0,0,2.51-21.66c0-1.44-.12-3.29-.3-5.53a67.33,67.33,0,0,0-.94-6.85,28.56,28.56,0,0,0-1.82-6.12,5.87,5.87,0,0,0-3-3.35,1.38,1.38,0,0,1-.26-1,1.36,1.36,0,0,0-.26-1,8,8,0,0,0-1.54-3.11,30.19,30.19,0,0,0-2.31-2.39,13.31,13.31,0,0,0-2.06-3.84c-1.2-1.76-2.22-2.63-3.06-2.63l-1.8-3.35a3.67,3.67,0,0,0-1.53-.23c-1,0-1.52.41-1.51,1.21a1.33,1.33,0,0,0-.25,1,3.52,3.52,0,0,0,.13,1,4.05,4.05,0,0,1,.14,1,33.13,33.13,0,0,1,2.09,8.65,85.81,85.81,0,0,1,.57,8.9,193.48,193.48,0,0,1-5.5,28.54,134.41,134.41,0,0,1-10.34,26.65,57.8,57.8,0,0,1-5.27,8.69,33.79,33.79,0,0,1-7.31,7.26,27.84,27.84,0,0,1-6.45,3.89,21.87,21.87,0,0,1-8.49,1.5,11.5,11.5,0,0,1-8.28-3,20.37,20.37,0,0,1-5-7.54,40.42,40.42,0,0,1-2.49-10.09,92,92,0,0,1-.71-10.58c0-2.25.05-4.37.2-6.38S962.31,630,962.47,628.68ZM879.78,489.54q4.86-22,11.77-45.42t14.74-44.25q7.83-20.83,14.61-31.74c0-.31.07.32.24,1.89s.25,3,.26,4.25a370.36,370.36,0,0,1-7.93,40.19q-4.89,18.93-10.91,37.15t-13,36q-6.95,17.76-15,36.23Q874.91,511.53,879.78,489.54Z"/><path class="cls-1" d="M1326.16,613.8q-2.81-3.85-6-3.69-2,.09-3.48,2.66c-.49,1-3.39,5.9-5.77,10.86-4.44,9.24-11.78,19-15.44,23.36s-6.58,6.56-8.71,6.66a2.47,2.47,0,0,1-2.06-.89q-1.7-1.9-2-8.38a140.53,140.53,0,0,1,1.12-22q1.53-13.54,3.64-27.61t4.15-25.63a145.66,145.66,0,0,0,2.22-16.07,17.3,17.3,0,0,0,.88-6.52q-.35-7-6.06-12.67t-12.92-5.34a26.75,26.75,0,0,1-3.82-.06,26.63,26.63,0,0,0-3.42-.08,6.87,6.87,0,0,0-4.74,1.74q-4.63,3.72-8.7,14.89a185.39,185.39,0,0,0-7,25c-.52,2.48-1,5-1.46,7.48a21.2,21.2,0,0,0-6.73,2.76c-11.52,6.52-26.82,18.05-39.21,28-.45-9.06-2.22-54.76-2.22-56.49a22.93,22.93,0,0,1,.46-4.57,23.7,23.7,0,0,0,.45-4.58,13.17,13.17,0,0,0-3.2-8,16.36,16.36,0,0,0-6.64-4.35,36.74,36.74,0,0,0-8.46-1.83c-3.06-.3-6.11-.46-9.16-.46a98.63,98.63,0,0,0-40.27,8.93,154.61,154.61,0,0,0-36.39,22.42,125.2,125.2,0,0,0-26.32,29.52q-10.07,16-10.07,30.67c0,5.19,12.47,62.14,84,8.8,26.27-19.57,23.83-30.17,27.19-31.7.3,4.27.46,4.9.46,9.17V631c-6.11,6.41-43.65,44.36-77.65,89.36-15.59,22.92-30,55-34,76-3.94,20.71-11.85,65.36,35.91,54,25.09-6,66.09-56,77.15-86.15,12.11-33.08,27.88-70.33,29.71-114.88l-.16-7,38.39-38.94s1.87-2.91,4-6.78c-.07.64-.16,1.28-.22,1.93a168,168,0,0,0-1,25q.72,14.43,4.17,23.23a49.74,49.74,0,0,0,7.93,14.06,29.59,29.59,0,0,0,9,7.53q4.53,2.26,7.41,3.62a24.89,24.89,0,0,0,5.91,1.7,28.69,28.69,0,0,0,5.44.23q10.41-.52,20-8.73a102.35,102.35,0,0,0,18.06-20.59,50.43,50.43,0,0,0,7.27-15.82,10.81,10.81,0,0,0,1.3-6A16,16,0,0,0,1326.16,613.8Zm-186.32-16.49c-18.55,19.44-41.09,26.51-46,22-5.16-4.75,10.41-28.18,28-43,25.48-21.45,37.6-24.81,41.57-26.34C1168.84,550.31,1160.84,575.31,1139.84,597.31ZM1157,714.48a356.53,356.53,0,0,1-18.31,41,291.65,291.65,0,0,1-23.57,38q-12.83,17.39-24.26,25.17.45-16.94,8.93-35.92a297.11,297.11,0,0,1,20.13-37.53q11.68-18.54,24.26-35.48t21.74-29.75Q1164.55,694.13,1157,714.48Z"/><path class="cls-1" d="M1269.43,501.07a53.22,53.22,0,0,0,7.48,9.3c2.83,2.83,5.81,4.15,8.92,4q7.64-.37,13.64-8a25.34,25.34,0,0,0,5.51-17.52l-.18-3.65q-.65-13-4.3-18.08a10.63,10.63,0,0,0-9.6-4.74,28.74,28.74,0,0,0-7.56,1.94,40.48,40.48,0,0,0-9.74,5.19,35.72,35.72,0,0,0-8.11,8,15,15,0,0,0-3.13,9.83A104.26,104.26,0,0,0,1269.43,501.07Z"/><path class="cls-1" d="M522.84,402.31c11,0,17-17,14-19s-123-12-155-6-10,22-10,22-18,143-24,182c-5,32.38-12,94-2,108s76.28,7.41,100,2c57-13,71-18,74-21s.77-12.75-8-11c-10,2-30,2-78,3-6,.13-31,0-31-6s14-110,14-110c0-3,71,1,78,0s16-19,11-22-85-4-85-4l17-114S511.84,402.31,522.84,402.31Z"/></g></svg>