<?xml version="1.0" encoding="utf-8"?>
<!-- Generator: Adobe Illustrator 23.0.3, SVG Export Plug-In . SVG Version: 6.00 Build 0)  -->
<svg version="1.1" xmlns="http://www.w3.org/2000/svg" xmlns:xlink="http://www.w3.org/1999/xlink" x="0px" y="0px"
	 viewBox="0 0 119.8 63.4" style="enable-background:new 0 0 119.8 63.4;" xml:space="preserve">
<style type="text/css">
	.st0{display:none;}
	.st1{display:inline;fill:#43FF70;}
	.st2{fill:#1DCE3A;}
	.st3{fill:#FFFFFF;}
</style>
<g id="Layer_2" class="st0">
	<rect x="-16.5" class="st1" width="150" height="150"/>
</g>
<g id="Layer_1">
	<polygon class="st2" points="25,53.1 3.7,32.1 16.4,19.2 16.3,9.8 23.5,2.5 49.6,28.3 	"/>
	<path class="st3" d="M53.9,16.4h5.6c1.3-0.1,2.6,0.4,3.5,1.2c0.7,0.8,1,1.8,1,2.8l0,0c0.1,1.7-1,3.2-2.6,3.8l3,4.3h-3.1l-2.6-3.9
		h-2.1v3.9h-2.7V16.4z M59.3,22.3c1.3,0,2-0.7,2-1.7l0,0c0-1.1-0.8-1.7-2.1-1.7h-2.6v3.5L59.3,22.3z"/>
	<path class="st3" d="M70.3,16.3h2.4l5.2,12.2h-2.8L74,25.8h-5.1l-1.1,2.7h-2.7L70.3,16.3z M73.1,23.4l-1.6-3.9l-1.6,3.9H73.1z"/>
	<path class="st3" d="M79,16.4h2.7v12.1H79V16.4z"/>
	<path class="st3" d="M82.9,26.7l1.6-1.9c1,0.9,2.3,1.4,3.6,1.5c1.1,0,1.7-0.4,1.7-1.1l0,0c0-0.7-0.4-1-2.4-1.5
		c-2.4-0.6-4-1.3-4-3.7l0,0c0-2.2,1.8-3.7,4.2-3.7c1.6,0,3.2,0.5,4.5,1.5l-1.4,2c-0.9-0.7-2-1.1-3.1-1.2c-1,0-1.6,0.5-1.6,1l0,0
		c0,0.8,0.5,1.1,2.6,1.6c2.5,0.6,3.8,1.5,3.8,3.6l0,0c0,2.4-1.8,3.8-4.4,3.8C86.1,28.6,84.3,28,82.9,26.7z"/>
	<path class="st3" d="M93.9,16.4h9.1v2.4h-6.5v2.4h5.7v2.4h-5.7v2.5h6.6v2.4h-9.2V16.4z"/>
	<path class="st3" d="M56.7,34.7H53v-2.4h10v2.4h-3.7v9.6h-2.7L56.7,34.7z"/>
	<path class="st3" d="M64.8,32.2h2.7V37h4.9v-4.8h2.7v12.1h-2.7v-4.9h-4.9v4.9h-2.7L64.8,32.2z"/>
	<path class="st3" d="M76.7,32.2h9.1v2.4h-6.5V37h5.7v2.4h-5.7v2.5h6.6v2.4h-9.2V32.2z"/>
	<path class="st3" d="M53.9,48h9.2v2.4h-6.6V53h5.8v2.4h-5.8v4.7h-2.7V48z"/>
	<path class="st3" d="M64.6,48h2.7v9.7h6v2.4h-8.7L64.6,48z"/>
	<path class="st3" d="M73.3,54.2L73.3,54.2c0-3.6,2.9-6.4,6.4-6.4c3.6,0,6.4,2.9,6.4,6.4l0,0c0,3.6-2.9,6.4-6.4,6.4
		C76.2,60.6,73.3,57.7,73.3,54.2z M83.4,54.2L83.4,54.2c0.1-2-1.5-3.7-3.5-3.8c0,0-0.1,0-0.1,0c-2,0-3.6,1.6-3.6,3.6
		c0,0.1,0,0.1,0,0.2l0,0c-0.1,2,1.5,3.7,3.6,3.8c0,0,0.1,0,0.1,0c2,0,3.6-1.6,3.6-3.6C83.4,54.3,83.4,54.2,83.4,54.2z"/>
	<path class="st3" d="M87.5,54.2L87.5,54.2c0-3.6,2.9-6.4,6.4-6.4c3.6,0,6.4,2.9,6.4,6.4l0,0c0,3.6-2.9,6.4-6.4,6.4
		C90.3,60.6,87.5,57.7,87.5,54.2z M97.5,54.2L97.5,54.2c0.1-2-1.5-3.7-3.5-3.8c0,0-0.1,0-0.1,0c-2,0-3.6,1.6-3.6,3.6
		c0,0.1,0,0.1,0,0.2l0,0c-0.1,2,1.5,3.7,3.5,3.8c0,0,0.1,0,0.1,0c2,0,3.6-1.6,3.7-3.6C97.6,54.3,97.6,54.2,97.5,54.2L97.5,54.2z"/>
	<path class="st3" d="M101.8,48h5.5c1.3-0.1,2.6,0.4,3.5,1.2c0.7,0.7,1.1,1.7,1,2.8l0,0c0.1,1.7-1,3.2-2.6,3.8l3,4.3h-3.1l-2.6-3.9
		h-2.1v3.9h-2.7L101.8,48z M107.1,53.9c1.3,0,2-0.7,2-1.7l0,0c0-1.1-0.8-1.7-2.1-1.7h-2.6V54L107.1,53.9z"/>
	<polyline class="st3" points="27.8,34.6 32.2,39.1 37.2,34.1 24.2,21 11.3,34 16.3,39 20.7,34.6 20.7,60.2 27.8,60.2 	"/>
</g>
</svg>
