<svg id="Layer_1" data-name="Layer 1" xmlns="http://www.w3.org/2000/svg" viewBox="0 0 282 282"><defs><style>.cls-1{fill:#1dce3a;}.cls-2{fill:#1d1d1c;}.cls-3{fill:#1d1d1b;}</style></defs><polygon class="cls-1" points="107.53 161.11 86.21 140.03 98.94 127.15 98.89 117.77 106.09 110.49 132.13 136.23 107.53 161.11"/><path class="cls-2" d="M136.44,124.35H142a4.86,4.86,0,0,1,3.53,1.22,3.83,3.83,0,0,1,1,2.77v0a3.76,3.76,0,0,1-2.59,3.76l3,4.32h-3.12l-2.59-3.87H139.1v3.87h-2.66Zm5.36,5.87c1.29,0,2-.69,2-1.71v0c0-1.14-.8-1.73-2.1-1.73H139.1v3.47Z"/><path class="cls-2" d="M152.84,124.26h2.45l5.19,12.19H157.7l-1.11-2.72h-5.12l-1.1,2.72h-2.72Zm2.8,7.12L154,127.46l-1.61,3.92Z"/><path class="cls-2" d="M161.53,124.35h2.66v12.1h-2.66Z"/><path class="cls-2" d="M165.45,134.69,167,132.8a5.55,5.55,0,0,0,3.61,1.47c1.09,0,1.74-.43,1.74-1.14v0c0-.67-.41-1-2.43-1.53-2.44-.63-4-1.3-4-3.7v0c0-2.19,1.76-3.65,4.23-3.65a7,7,0,0,1,4.5,1.54l-1.39,2a5.6,5.6,0,0,0-3.14-1.19c-1,0-1.56.46-1.56,1v0c0,.8.52,1.06,2.61,1.59,2.46.64,3.84,1.53,3.84,3.64v0c0,2.4-1.83,3.75-4.44,3.75A7.72,7.72,0,0,1,165.45,134.69Z"/><path class="cls-2" d="M176.41,124.35h9.13v2.37h-6.48v2.45h5.7v2.37h-5.7v2.54h6.56v2.37h-9.21Z"/><path class="cls-2" d="M139.25,142.64h-3.68v-2.45h10v2.45h-3.68v9.65h-2.67Z"/><path class="cls-2" d="M147.39,140.19h2.67V145H155v-4.79h2.66v12.1H155v-4.86h-4.91v4.86h-2.67Z"/><path class="cls-2" d="M159.25,140.19h9.13v2.37h-6.49V145h5.71v2.37h-5.71v2.54h6.57v2.37h-9.21Z"/><path class="cls-2" d="M136.44,156h9.21v2.42H139.1V161h5.77v2.42H139.1v4.68h-2.66Z"/><path class="cls-2" d="M147.19,156h2.66v9.68h6v2.42h-8.69Z"/><path class="cls-2" d="M155.86,162.12v0a6.43,6.43,0,0,1,12.86,0v0a6.43,6.43,0,0,1-12.86,0Zm10.08,0v0a3.67,3.67,0,0,0-3.66-3.8,3.62,3.62,0,0,0-3.64,3.77v0a3.69,3.69,0,0,0,3.67,3.81A3.62,3.62,0,0,0,165.94,162.12Z"/><path class="cls-2" d="M170,162.12v0a6.43,6.43,0,0,1,12.86,0v0a6.43,6.43,0,0,1-12.86,0Zm10.08,0v0a3.67,3.67,0,0,0-3.66-3.8,3.61,3.61,0,0,0-3.63,3.77v0a3.68,3.68,0,0,0,3.66,3.81A3.62,3.62,0,0,0,180.11,162.12Z"/><path class="cls-2" d="M184.31,156h5.53a4.82,4.82,0,0,1,3.53,1.23,3.79,3.79,0,0,1,1,2.76v0a3.75,3.75,0,0,1-2.59,3.75l3,4.32h-3.11l-2.6-3.87H187v3.87h-2.66Zm5.36,5.88c1.29,0,2-.69,2-1.71v0c0-1.14-.8-1.73-2.09-1.73H187v3.48Z"/><polyline class="cls-3" points="110.31 142.57 114.78 147.04 119.79 142.03 106.76 129.01 93.83 141.94 98.84 146.95 103.22 142.57 103.22 168.15 110.31 168.15"/></svg>