<svg id="Layer_1" data-name="Layer 1" xmlns="http://www.w3.org/2000/svg" viewBox="0 0 165.77 36.75"><defs><style>.cls-1{fill:#008fbe;}.cls-2{fill:#c2d500;}.cls-3{fill:#ffda00;}.cls-4{fill:#ea0029;}.cls-5{fill:#ff6b00;}</style></defs><rect class="cls-1" x="159.57" y="0.01" width="6.2" height="36.75"/><rect class="cls-2" x="154.42" y="0.01" width="6.16" height="36.75"/><rect class="cls-3" x="149.09" y="0.01" width="6.31" height="36.75"/><rect class="cls-4" x="144.27" y="0.01" width="5.94" height="36.75"/><rect class="cls-5" x="129.48" y="0.01" width="15.55" height="36.75"/><path d="M47.19,53.38,40,38.72H34.85V53.38H27.68V16.62h14.4C49.56,16.62,54,21.73,54,27.88a9.9,9.9,0,0,1-6.71,9.65L55.5,53.38ZM41.61,23H34.85v9.71h6.76c3.15,0,5.22-2,5.22-4.85S44.76,23,41.61,23Z" transform="translate(-27.68 -16.62)"/><path d="M82.76,53.38l-2.17-6.51H67.53l-2.22,6.51H57.82L71.19,16.62h5.63L90.24,53.38ZM74.19,27.46,69.54,40.83h9.14Z" transform="translate(-27.68 -16.62)"/><path d="M106.86,39.54H99.79V53.38H92.62V16.62h14.24c7.59,0,12.13,5.22,12.13,11.46S114.45,39.54,106.86,39.54ZM106.5,23H99.79V33.09h6.71c3.25,0,5.32-2,5.32-5S109.75,23,106.5,23Z" transform="translate(-27.68 -16.62)"/><path d="M135.56,39.54h-7.07V53.38h-7.17V16.62h14.24c7.59,0,12.13,5.22,12.13,11.46S143.15,39.54,135.56,39.54ZM135.2,23h-6.71V33.09h6.71c3.25,0,5.32-2,5.32-5S138.45,23,135.2,23Z" transform="translate(-27.68 -16.62)"/></svg>