<svg xmlns="http://www.w3.org/2000/svg" viewBox="0 0 1600.65 323.72"><defs><style>.cls-1{fill:#4cceea;}.cls-1,.cls-2,.cls-3,.cls-4,.cls-5,.cls-6,.cls-7,.cls-8{fill-rule:evenodd;}.cls-2{fill:#00b9e1;}.cls-3{fill:#e6ebed;}.cls-4{fill:#fff;}.cls-5{fill:#28c382;}.cls-6{fill:#24b271;}.cls-7{fill:#0c9e77;}.cls-8{fill:#076048;}</style></defs><g id="Layer_2" data-name="Layer 2"><g id="Layer_1-2" data-name="Layer 1"><g id="mountains"><path class="cls-1" d="M1130,141.2c1,.69,2,1.33,2.88,1.91C1132,142.53,1131,141.89,1130,141.2Zm140.45-13.29c-2.83-1.69-4.78-3-4.78-3l-.44-.42.44.42s1.95,1.26,4.78,3Zm276.88-96.73c.68.28,1.38.61,2.11,1C1548.69,31.79,1548,31.46,1547.31,31.18Zm-97.07,68.14c.16-.37.31-.75.47-1.12-.16.37-.31.75-.47,1.12.16-.37.31-.75.47-1.12.06-.16.13-.31.19-.47a13.64,13.64,0,0,0,.49-1.4,6.28,6.28,0,0,0,.19-.86c2.36-1,4.7-2,7-3.19,1.15-.58,2.29-1.18,3.42-1.79s2.24-1.26,3.34-1.93c2.55-1.52,5.46-3.5,8.62-5.81l1.8-1.33c1.22-.91,2.46-1.86,3.74-2.84l1.94-1.51c1.74-1.36,3.51-2.77,5.33-4.23,5.43-4.37,11.13-9.12,16.72-13.8l5.56-4.64c5.49-4.59,10.78-9,15.48-12.72,3.92-3.12,7.44-5.8,10.35-7.78a35,35,0,0,1,5.25-3.1l-.08-.21.35-.14.34-.12a5.85,5.85,0,0,1,1-.19c3.25-.26,7.92,2.12,13.15,5.6,1.16.78,2.35,1.61,3.55,2.47s2.44,1.77,3.67,2.7,2.48,1.87,3.72,2.82l3.71,2.83,1.84,1.4q1.83,1.38,3.6,2.67c1.18.86,2.33,1.68,3.45,2.44.56.38,1.11.75,1.65,1.1,1.09.71,2.13,1.34,3.13,1.9a20,20,0,0,0,5.33,2.22,8.1,8.1,0,0,0,1.1.16,4.69,4.69,0,0,0,1,0L1594,58l6.7-.88V269m0,3.33V302H.51V56.74l.37.33.47.42c.48.42,1.91,1,2.75,1.75l.18.17,1.3,1.15.3.26.2.18.71.62c6.54,5.79,18.1,16,30.26,26.64C55.94,104.77,76.27,122.33,81.51,126c10.4,7.28,8.32,2.08,21.84,10.4s22.88,11.43,34.32,14.55c1.67.46,4-.09,6.89-1.35.05-.1.09-.2.14-.29,6.75-3.18,16-10.15,25.41-17.75,4.4-3.56,8.81-7.26,13-10.77,2.51-2.1,4.94-4.14,7.24-6q2.29-1.91,4.39-3.59c1.39-1.12,2.7-2.16,3.93-3.1s2.35-1.77,3.37-2.48,1.94-1.29,2.73-1.73c12.48-7,27,.31,39.52-4.89,2.74-1.14,9.19-6.64,17.67-14.51,1-.92,2-1.88,3.07-2.87,3.16-3,6.54-6.18,10.07-9.59l3.58-3.45,1.83-1.77,5.58-5.42,3.79-3.69,3.83-3.74,3.85-3.75,1.92-1.87,3.85-3.75L309.05,39l3.77-3.64c1.86-1.8,3.71-3.56,5.52-5.29q1.82-1.74,3.58-3.4c4.11-3.9,8-7.54,11.59-10.78l3-2.68c1-.85,1.9-1.67,2.8-2.45q2-1.77,3.84-3.25C344.82,6.14,346.33,5,347.66,4a33,33,0,0,1,2.84-1.86l.58-.32a7,7,0,0,1,1.45-.59,1.61,1.61,0,0,1,1,0c7.28,3.12,58.24,64.56,70.72,74.91q2.05,1.7,4.29,3.39c1.5,1.13,3.05,2.27,4.64,3.4,3.18,2.26,6.51,4.53,9.86,6.79l3.25,2.2c3.24,2.19,6.45,4.39,9.5,6.59a124.91,124.91,0,0,1,11.11,8.78c1.13,1,2.27,2.13,3.42,3.28,1.72,1.73,3.46,3.58,5.18,5.47,5.19,5.67,10.32,11.76,14.95,16.43.51.52,1,1,1.52,1.51s1,.94,1.48,1.38,1,.9,1.51,1.31a22.57,22.57,0,0,0,4.18,2.86,1.8,1.8,0,0,0,.64.18,3.48,3.48,0,0,0,.79,0,6,6,0,0,0,.94-.2,15,15,0,0,0,2.29-.92c.42-.2.87-.44,1.33-.7,1.4-.78,3-1.77,4.7-3,4-2.75,8.85-6.49,14.09-10.67,2.67-2.14,5.46-4.4,8.3-6.7l6.47-5.23,2.17-1.75c2.9-2.33,5.81-4.63,8.67-6.84,1.43-1.1,2.85-2.19,4.24-3.23,2.8-2.1,5.53-4.07,8.13-5.83q1.95-1.34,3.79-2.5c1.23-.77,2.43-1.49,3.58-2.14s2.25-1.22,3.3-1.73,2-.9,3-1.27a13.15,13.15,0,0,1,4.92-1,6.41,6.41,0,0,1,1,.13,4.57,4.57,0,0,1,.88.3l.12.06A23.84,23.84,0,0,1,585,88c.92.58,1.89,1.26,2.91,2,.67.5,1.38,1,2.09,1.62s1.46,1.18,2.21,1.81c.38.32.76.64,1.14,1,.77.66,1.55,1.34,2.35,2.06,2.78,2.48,5.73,5.24,8.72,8.09L607,107l3.88,3.74,2.58,2.48c1.28,1.24,2.56,2.46,3.81,3.65l2.49,2.35c2,1.84,3.88,3.59,5.7,5.19l1.35,1.17c1.33,1.14,2.6,2.19,3.81,3.12a43.17,43.17,0,0,0,4.4,3.06,20.39,20.39,0,0,0,1.86,1,8.8,8.8,0,0,0,1.6.52,4.49,4.49,0,0,0,1,.08,10.43,10.43,0,0,0,2.42-.38c.45-.12.93-.27,1.43-.44,1-.35,2.1-.79,3.27-1.33s2.41-1.15,3.72-1.84c1.68-.88,3.46-1.89,5.32-3,1.24-.72,2.52-1.49,3.82-2.3l2-1.22c5.3-3.31,11-7,16.42-10.63l4.06-2.65c2-1.3,4-2.56,5.87-3.75,2.52-1.58,4.92-3,7.12-4.29,1.11-.63,2.16-1.21,3.16-1.73s1.94-1,2.81-1.38a14.59,14.59,0,0,1,5.24-1.55,13,13,0,0,0,2.56-.28,30.16,30.16,0,0,0,5-1.61c.72-.3,1.46-.62,2.21-1s1.53-.72,2.32-1.11l2.4-1.23c.81-.43,1.63-.87,2.46-1.33,1.07-.58,2.15-1.18,3.25-1.8,3.27-1.85,6.63-3.79,9.93-5.6,1.25-.68,2.5-1.35,3.73-2,.61-.32,1.22-.63,1.83-.92a57.68,57.68,0,0,1,8.12-3.38l.4-.12c.52-.16,1-.3,1.55-.42h0a7.24,7.24,0,0,0,.79-.25l.18-.07c.29-.11.59-.24.91-.39l.17-.09.94-.49.18-.1a80,80,0,0,0,7.86-5.33c.91-.68,1.86-1.4,2.85-2.17s2-1.56,3.07-2.4c10-8,23-19,36.25-29.71l4.18-3.37c10.48-8.36,20.94-16.28,30.08-22,1.21-.77,2.41-1.5,3.58-2.19l1.73-1q1.71-1,3.33-1.8c1.08-.55,2.13-1.06,3.15-1.51a39.71,39.71,0,0,1,4.32-1.67,22.52,22.52,0,0,1,3.8-.88c.48-.06.95-.1,1.4-.12a8.94,8.94,0,0,1,2.47.25L863,.74l.13.05a5.78,5.78,0,0,1,1.09.35h0q.66.3,1.32.63-.66-.33-1.32-.63c.52.24,1.06.5,1.59.77l-.27-.14.27.14.48.25c.4.21.8.42,1.2.65l.48.27.26.15-.26-.15c1.14.66,2.3,1.39,3.47,2.18a126.88,126.88,0,0,1,14.83,12.15c2.42,2.26,4.79,4.56,7.07,6.8,1.14,1.13,2.25,2.23,3.33,3.32,2.71,2.7,5.23,5.23,7.48,7.39,1.35,1.29,2.59,2.45,3.73,3.44.75.65,1.45,1.23,2.1,1.71a8.28,8.28,0,0,0,3.12,1.7c6.24,1,25-3.12,36.4,2.08a5.49,5.49,0,0,1,.59.3,15.84,15.84,0,0,1,1.37.85l.79.56c.82.59,1.72,1.31,2.71,2.13l1,.86c1.39,1.19,2.91,2.56,4.55,4.08,2.45,2.28,5.15,4.89,8,7.72,3.8,3.78,7.88,8,12,12.26,3.09,3.23,6.22,6.53,9.27,9.79a6.91,6.91,0,0,1-3.24-.8,6.78,6.78,0,0,1-1-.65l0,.31c.18.11.36.25.54.34a6.91,6.91,0,0,0,3.24.8c15.53,16.57,29.39,32.16,29.39,32.16l4.16,7.28a40,40,0,0,0,5.19,3c.6.3,1.2.57,1.81.84a30,30,0,0,0,6.13,3.95,30,30,0,0,1-6.13-3.95l1,.42c-.17-.14-.36-.27-.52-.42-.61-.27-1.21-.54-1.81-.84.6.3,1.2.57,1.81.84.89.39,1.79.75,2.69,1.08s1.82.64,2.74.92c1.23.37,2.46.7,3.7,1s2.47.53,3.7.73c.77.12,1.54.23,2.3.32,1,.13,2,.22,3,.29-1-.07-2-.16-3-.29,1,.13,2,.22,3,.29l.74.05c1,.06,2,.1,2.91.11.41,0,.82,0,1.22,0,1.7,0,3.34-.13,4.89-.3a.11.11,0,0,0,0,0l.54,0c5.66-.6,10.19-2,12.38-3.87,1.87-1.56,3.64-4,5.69-6.39a25.14,25.14,0,0,1,4-3.88c.27-.2.55-.39.83-.57a11.32,11.32,0,0,1,4.79-1.74,9.84,9.84,0,0,1,1.1-.07,9,9,0,0,1,1.15,0,13,13,0,0,1,2.48.45,18,18,0,0,1,2,.69,21.45,21.45,0,0,1,2.17,1,33.67,33.67,0,0,1,3.15,1.94c.55.38,1.12.79,1.7,1.23l2.69,2.07,10.59,8.19,5,3.88,2.42,1.83-.27.19c2.33,1.77,4.55,3.41,6.62,4.87l2.07,1.45c2,1.38,3.85,2.56,5.45,3.47.54.31,1,.58,1.52.83l.7.33c0-.11-.11-.22-.17-.33a18.13,18.13,0,0,0,2.22,1,5.49,5.49,0,0,0,1.38.3c2.74-.65,15.09-11.24,29.35-23.28,0,.13.06.25.08.38l.45-.38c6.16-5.21,12.68-10.69,18.94-15.77,1.13-.92,2.26-1.82,3.38-2.72,3.9-3.12,7.65-6,11.09-8.53,1-.72,2-1.41,2.87-2.06s1.83-1.26,2.69-1.84c1.3-.86,2.53-1.63,3.66-2.29.38-.23.75-.44,1.11-.64a24.73,24.73,0,0,1,3.8-1.76,9.18,9.18,0,0,1,.9-.28,3.74,3.74,0,0,1,2.06-.06,12.24,12.24,0,0,1,1.85.82,41.16,41.16,0,0,1,3.58,2.23c1.33.92,2.79,2,4.34,3.19,1,.8,2.1,1.65,3.2,2.54,2.19,1.79,4.5,3.73,6.82,5.74,1.75,1.51,3.5,3.06,5.23,4.59l3.4,3.07c1.11,1,2.21,2,3.26,3s2.08,1.91,3.05,2.82l2.77,2.58,1.25,1.18,2.22,2.1,3,2.87c.11.12.22.22.31.31-.09-.09-.2-.19-.31-.31l-.31.22.09.09.44.42s2.54,1.65,6.05,3.69l.71.42,1.71,1,1.8,1a62.79,62.79,0,0,0,10.64,4.82q.77.22,1.44.36m0,0c.23,0,.44.08.65.11l-.12-.11q-.68-.14-1.44-.36.76.22,1.44.36c.29.06.56.11.83.14a2.42,2.42,0,0,0,.38,0l.17,0a3.61,3.61,0,0,0,.89-.36c2.2-1.15,6.23-4.65,11.26-9.35l.27.25a3.2,3.2,0,0,1,.27-.25l0,0,2-1.88.47-.45,2.05-2,.48-.46L1309,120l.41-.39,2.22-2.15,1-1c3.25-3.14,6.64-6.41,10-9.65,1.13-1.08,2.27-2.15,3.39-3.21l1.69-1.58c1.13-1,2.24-2.08,3.35-3.09s2.2-2,3.28-3c3.23-2.87,6.32-5.48,9.12-7.65,1.4-1.08,2.74-2,4-2.88.62-.42,1.23-.8,1.8-1.15s1.14-.65,1.66-.92l.82-.4.78-.33a8.34,8.34,0,0,1,2-.54,3.62,3.62,0,0,1,.57,0,2.24,2.24,0,0,1,.52.06,1.77,1.77,0,0,1,.46.15l1,.42c.69.29,1.48.62,2.37,1,5.33,2.15,13.87,5.3,22,8.27l4,1.46,7.51,2.69,4.74,1.69,4.19,1.48,1,.36-1-.35,1.17.41-.18-.06.34.12.1,0,.16,0,.15.05.21.07a22.38,22.38,0,0,0,2.42.9,33.94,33.94,0,0,0,5.37,1.22c1,.14,1.92.26,2.92.34s1.76.12,2.66.15,1.82,0,2.75,0c1.69,0,3.43-.14,5.21-.32a.06.06,0,0,1,0,0c2.55-.27,5.18-.69,7.85-1.24s5.37-1.25,8.09-2.06a102.68,102.68,0,0,0,9.79-3.5,6.28,6.28,0,0,1-.19.86,13.64,13.64,0,0,1-.49,1.4c-.07.16-.13.32-.19.48-.16.37-.32.74-.47,1.11m1.69-3c-.14.48-.32.94-.5,1.4.18-.46.36-.92.5-1.4ZM584.85,90.07h0a.24.24,0,0,1-.09-.08h0a.34.34,0,0,0,.09.08Zm-.09-.08,0,0h0l0,0Zm-.2-.24.17.21h0l-.17-.22ZM866.25,2.16l1.2.65ZM754.85,74.83l.17-.1Zm-1.12.58.17-.08Zm-1.09.47.18-.07-.18.07Zm-2.74.79.4-.12Zm299.33,53.39c1,.06,1.94.1,2.89.11h0C1051.18,130.16,1050.21,130.12,1049.23,130.06Zm255.13-2h0a4.62,4.62,0,0,0,.63.11A6.37,6.37,0,0,1,1304.36,128Zm-.34-.1h0l.34.1h0Zm0,0-.17-.06h0l.17.06Zm-.17-.07-.33-.14h0l.33.15Zm-.33-.14-.15-.08h0l.14.08Zm-.63-.37a3.82,3.82,0,0,0,.48.29h0a3.82,3.82,0,0,1-.48-.29ZM1403.83,100l.15,0-.15,0Zm-47.7-17.62,1,.42-1-.42Zm-44.45,35.11,1-.91ZM1309,120l.4-.38Zm-2.37,2.28.41-.4-.41.4Zm-2.52,2.4.43-.41-.43.41ZM.37,57.07,0,56.74Z"/><path class="cls-1" d="M1359.85,131.54s49.37-29,53-29.43,22.27,8.19,22.27,8.19l33.26,49.13-76,33.52Z"/><path class="cls-2" d="M507.3,143.09c1.77.94,3.56,1.91,5.36,2.93q4.05,2.28,8.15,4.82t8.17,5.29c1.81,1.23,3.61,2.48,5.4,3.77s3.57,2.59,5.33,3.93c5.29,4,10.41,8.24,15.23,12.63q3.63,3.28,7,6.68c.74.75,1.48,1.51,2.2,2.27,1.46,1.52,2.86,3.05,4.22,4.59s2.67,3.08,3.92,4.63q2.82,3.5,5.25,7c.35.5.74,1,1.15,1.52s.87,1,1.34,1.47a17,17,0,0,0,1.47,1.33c.25.2.51.39.77.57a10.64,10.64,0,0,0,1.59.93,6.39,6.39,0,0,0,2.41.64,4.24,4.24,0,0,0,3-1.07,4,4,0,0,0,.46-.46,4.78,4.78,0,0,0,.39-.5,5.18,5.18,0,0,0,.54-1.11,10.34,10.34,0,0,0,.39-3.94c0-.47-.06-.94-.1-1.41,0-.24-.05-.47-.07-.71,0-.47-.08-.93-.11-1.39,0-.23,0-.46,0-.68a13.79,13.79,0,0,1,.11-2.57,15.37,15.37,0,0,1,.54-2.51c.12-.41.26-.82.42-1.22a16.86,16.86,0,0,1,8.61-9.15c.39-.17.8-.33,1.21-.47a4.31,4.31,0,0,0,.15-2,5.36,5.36,0,0,0-.73-1.9,9.21,9.21,0,0,0-2-2.19,11.36,11.36,0,0,0-1.26-.93l-.67-.42a19.86,19.86,0,0,0-2.07-1c-.91-.37-1.88-.78-2.82-1.23-.46-.23-.93-.48-1.37-.73a11,11,0,0,1-2.89-2.27,5.82,5.82,0,0,1-1.07-1.77,5.09,5.09,0,0,1-.31-1.39,3.75,3.75,0,0,1,0-.58,6.13,6.13,0,0,1,.14-1.13,9.18,9.18,0,0,1,1.53-3.14c.23-.33.48-.66.73-1,.63-.81,1.31-1.6,1.92-2.38a10.68,10.68,0,0,0,1.51-2.7,8,8,0,0,0,.36-1.18c.41-1.79.17-3.55-1.25-4.63a23.84,23.84,0,0,1-8.71-1.29,10.8,10.8,0,0,1-1.84-.9,6.7,6.7,0,0,1-2.59-2.74,6.1,6.1,0,0,1-.46-3.89,7.06,7.06,0,0,1,1.18-2.62,15.21,15.21,0,0,1,2-2.34q-.64-.68-1.23-1.41a16.88,16.88,0,0,1-1-1.51c-.35-.57-.69-1.17-1-1.77-.47-.79-1-1.59-1.51-2.32-.27-.36-.55-.72-.85-1.05a8.35,8.35,0,0,0-1.44-1.28,5.63,5.63,0,0,0-2.35-1,4.49,4.49,0,0,0-.73-.06,4.77,4.77,0,0,0-1.4.18,6.06,6.06,0,0,0-1.9.91,7.37,7.37,0,0,0-1.12,1,11.91,11.91,0,0,0-2.91,5.35,42.61,42.61,0,0,0-.77,4.47,20,20,0,0,1-2,7.16,6.73,6.73,0,0,1-.4.63,7.47,7.47,0,0,1-1,1.14,7.11,7.11,0,0,1-.6.49,8.14,8.14,0,0,1-2,1.1,5.27,5.27,0,0,1-4.76-.27,3.77,3.77,0,0,1-1-1,4,4,0,0,1-.3-.49,7.38,7.38,0,0,1-.72-2.77c0-.39-.06-.78-.09-1.16-.21-3.49-.42-7-.62-10.48l-.63-10.48a21.1,21.1,0,0,0-3.46-.22,21.37,21.37,0,0,0-8.4,1.91c-.52.24-1,.51-1.55.79l-1.25.72-1.3.73c-.44.24-.89.47-1.34.68a13.53,13.53,0,0,1-1.34.55,9.07,9.07,0,0,1-1.33.37,6.28,6.28,0,0,1-1.3.1,4.5,4.5,0,0,1-.63-.07,4.09,4.09,0,0,1-1.77-.79,5.77,5.77,0,0,1-.85-.79c-5.24,4.19-10.07,7.93-14.09,10.68-1.72,1.18-3.3,2.18-4.69,3-.47.26-.92.49-1.34.7a14.6,14.6,0,0,1-2.29.92,7.48,7.48,0,0,1-.94.2,3.47,3.47,0,0,1-.79,0,1.8,1.8,0,0,1-.64-.18c.86.4,1.73.82,2.6,1.24Q504.63,141.7,507.3,143.09Zm529.44-13.78,1.32.71c.88.49,1.74,1,2.54,1.5q.7.47,1.38,1c.44.34.88.7,1.3,1.07a33.8,33.8,0,0,1,2.41,2.38c.77.83,1.52,1.69,2.24,2.57s1.44,1.76,2.15,2.64q5.28,6.56,10.84,12.88t11.39,12.39q3.89,4,7.88,8a41.82,41.82,0,0,0,3.18,2.92,15.85,15.85,0,0,0,3.62,2.27l.55.22a6.7,6.7,0,0,0,1.16.26,5.83,5.83,0,0,0,.59,0,2.3,2.3,0,0,0,2.38-1.63,4.27,4.27,0,0,0,.19-.86,10.56,10.56,0,0,0-.93-5.2c-.28-.68-.58-1.36-.89-2a34.48,34.48,0,0,1-1.66-4,9.53,9.53,0,0,1-.4-2,6.18,6.18,0,0,1,.43-3,16.33,16.33,0,0,1,1.08-1.92,7,7,0,0,0,.73-1.45,4.44,4.44,0,0,0,.15-.52,4.13,4.13,0,0,0-.4-2.72,8.42,8.42,0,0,0-.6-1l-.37-.48c-.26-.31-.53-.62-.83-.93s-.59-.62-.9-.93l-.93-.92c-.3-.31-.6-.62-.88-.93a6.21,6.21,0,0,1-.42.81,4,4,0,0,1-.59.71,2.78,2.78,0,0,1-1,.65,2.73,2.73,0,0,1-1.1.17,4.94,4.94,0,0,1-2.78-1.21,9.08,9.08,0,0,1-1-.95l-.45-.55a10.27,10.27,0,0,1-.77-1.17,8.41,8.41,0,0,1-.55-1.23c-.22-.63-.43-1.28-.66-1.94s-.46-1.32-.73-1.95a11.47,11.47,0,0,0-.59-1.22,8.1,8.1,0,0,0-1.08-1.59,4.56,4.56,0,0,0-2.61-1.5,5.39,5.39,0,0,0-.8-.06,5.27,5.27,0,0,0-.79.07c-2.1.34-4.16,1.89-6.14,2.78a8.6,8.6,0,0,1-1.47.53,3.69,3.69,0,0,1-2.85-.37,17,17,0,0,1-1-6.07,20,20,0,0,1,1-6c-1.55.16-3.19.26-4.89.29h-1.71a61.81,61.81,0,0,1-9-.78c-1.23-.2-2.47-.44-3.71-.72s-2.47-.62-3.69-1c-1.84-.56-3.76-.67-5.53-1.44C1032.2,127.47,1034.52,128.11,1036.74,129.31Zm117,34.51c15.18,12.48,31.7,23.21,48.18,33.91l47.51,30.85a28.35,28.35,0,0,0,4.06,2.19c4.34,1.87,9.19,2.48,11.56-1.2-.43-1.11-.88-2.22-1.35-3.34s-1-2.2-1.5-3.29c-.26-.55-.53-1.09-.8-1.62-.55-1.08-1.13-2.13-1.75-3.16s-1.25-2-1.94-3c-.34-.48-.69-1-1-1.43a30.57,30.57,0,0,0-7.72-7.2c-1.44-.92-3-1.7-4.42-2.61q-.72-.45-1.41-1a14.7,14.7,0,0,1-2.07-1.87,15.74,15.74,0,0,1-1.7-2.2,17.25,17.25,0,0,1-1.52-16c.87-2,2-4.61,1.64-6.53a3,3,0,0,0-.32-1,2.75,2.75,0,0,0-1.15-1.09c-.86-.45-1.93-.4-2.76-.91a2.4,2.4,0,0,1-1.08-1.53,3.45,3.45,0,0,1-.07-1.32,3.84,3.84,0,0,1,.77-1.86,8.4,8.4,0,0,1,3.92-2.43l.63-.23a3.18,3.18,0,0,0-.34-1.48,4.58,4.58,0,0,0-.94-1.21,9.59,9.59,0,0,0-1.33-1.05c-2.43-1.66-5.64-2.95-5.34-5.65a5.59,5.59,0,0,1,2-3.15l3-3,6.09-6.07-28.86-6.71a7.2,7.2,0,0,1-1.12-.33,5.48,5.48,0,0,1-2.75,1.42,7.34,7.34,0,0,1-1.62.14,9.43,9.43,0,0,1-4.83-1.53A8.11,8.11,0,0,1,1201,135c-2.36-3.66-2.35-8.24-2-12.64,0-.63.11-1.26.17-1.87a8.26,8.26,0,0,0-2.88-.39,7.77,7.77,0,0,0-1,.08,12.75,12.75,0,0,0-2.84.73c-.31.12-.62.24-.93.38a33.06,33.06,0,0,0-3.68,1.94c-1.2.73-2.39,1.49-3.54,2.19-3.82,2.32-6.73,3.19-8.87,3a4.63,4.63,0,0,1-2.94-1.31,5.88,5.88,0,0,1-.52-.6,6.09,6.09,0,0,1-.79-1.49,9.6,9.6,0,0,1-.49-1.82c-14.72,12.44-27.41,23.33-29.58,23.33-.46,0-1,.38-1.61.16a15.34,15.34,0,0,1-2.3-.76C1140.89,153.37,1147.27,158.51,1153.73,163.82Zm139.15-24q2.25,2,4.42,4.16c17.37,17,31.13,37.7,47.6,55.76,2.75,3,5.57,5.95,8.49,8.78,1.69,1.64,3.42,3.24,5.15,4.84s3.46,3.2,5.17,4.82a98.27,98.27,0,0,1,9.61,10.28c.47.59.93,1.19,1.37,1.79.67.91,1.32,1.84,1.94,2.77s1.25,1.88,1.85,2.83c4.79,7.64,8.69,15.89,13.71,23.41,5.13,7.7,11.44,14.63,17.22,21.87,4.5,5.63,8.67-9,11.72-2.49.21.45.42.91.62,1.37,1,2.29,2,4.62,3.18,6.81.24.43.49.86.76,1.28s.54.84.84,1.25a14.8,14.8,0,0,0,5.7,4.84,10,10,0,0,0,1.38.51,8.79,8.79,0,0,0,2.92.38,7.61,7.61,0,0,0,4.2-1.53,7.73,7.73,0,0,0,1.59-1.59,5.69,5.69,0,0,0,1.13-4.78,5,5,0,0,0-.22-.72,9.61,9.61,0,0,0-2.07-3.08q-.54-.57-1.08-1.11a13.75,13.75,0,0,1-3.25-4.18c-.09-.23-.18-.47-.25-.71s-.1-.42-.14-.64a10,10,0,0,1-.1-2c0-.44.05-.88.08-1.32s.07,19.58.08,19.14a20.93,20.93,0,0,0-2.44-10.13c-.2-.39-.41-.78-.62-1.17-.44-.78-.91-1.55-1.41-2.29s-1-1.48-1.58-2.19c-.83-1.07-1.7-2.1-2.6-3.08-1.19-1.31-2.45-2.58-3.71-3.83l-1.9-1.87a67.83,67.83,0,0,1-8.82-9.91,20.8,20.8,0,0,1-1.15-1.87c-.12-.22-.24-.43-.35-.65-.22-.44-.42-.9-.6-1.35a12.66,12.66,0,0,1-.63-2.07,9.92,9.92,0,0,1-.22-2.1,8,8,0,0,1,.3-2.07,5.49,5.49,0,0,1,.24-.68c.73-1.82,2.19-3.26,3-5.07a7.36,7.36,0,0,0,.5-1.7,8.46,8.46,0,0,0,0-2.61,12.4,12.4,0,0,0-.39-1.73,15.93,15.93,0,0,0-.66-1.71,23,23,0,0,0-3.66-5.43c-3.22-3.66-7.13-7.28-7.74-12.12a15.64,15.64,0,0,1,0-3.42c.06-.69.13-1.38.19-2.07a12,12,0,0,0-.4-5.35,8.39,8.39,0,0,0-1.58-2.63,17.41,17.41,0,0,0-2.3-2.16c-.56-.45-1.13-.89-1.71-1.33l-.86-.66c-.57-.44-1.12-.89-1.64-1.36a13.54,13.54,0,0,1-1.43-1.5,8.13,8.13,0,0,1-.59-.82,7.26,7.26,0,0,1-.86-1.85c-2.07-6.75,6.68-13.31,4.68-20.08a7.62,7.62,0,0,0-.9-1.94,9.58,9.58,0,0,0-1.36-1.62c-3.08-3-8.14-4.52-10.76-8.12-1.7-2.32-2.17-5.15-2.4-8.05-.07-.87-.12-1.76-.17-2.63s-.11-1.75-.2-2.6a17.14,17.14,0,0,0-.73-3.47,15.68,15.68,0,0,0-1-2.46,9.69,9.69,0,0,0-2.07-2.65,6.33,6.33,0,0,0-1.32-.91,5.87,5.87,0,0,0-2.35-.66,7.8,7.8,0,0,1,.38-3.74c.14-.41.29-.81.47-1.21a17.88,17.88,0,0,1-2.31.12,15.45,15.45,0,0,1-6.7-1.65c-.39-.2-.77-.41-1.15-.63s-.73-.46-1.08-.71a21.06,21.06,0,0,1-2-1.62,29.49,29.49,0,0,1-7.16-10.91c-.33-.82-.63-1.65-.91-2.49a9.89,9.89,0,0,0-3.83,2.12,21,21,0,0,0-4.48,6c-.69,1.33-1.35,2.7-2,4-.23.44-.47.89-.72,1.32a18.26,18.26,0,0,1-3.59,4.72,9.87,9.87,0,0,1-6.21,2.53,7,7,0,0,1-1.45-.1,6,6,0,0,1-1.37-.4,5.73,5.73,0,0,1-1.8-1.2,9.59,9.59,0,0,1-2-3.3c-.61-1.57-1-3.28-1.59-4.78a8,8,0,0,0-1.76-3,3.88,3.88,0,0,0-2.24-1.06,4.93,4.93,0,0,0-.54,0c-2.34-.06-4.65,1.42-6.9,2.8-.52.32-1,.63-1.55.92q-.51.3-1,.54a7.29,7.29,0,0,1-3,.84,4.48,4.48,0,0,1-3.36-1.5c-5,4.7-9.06,8.21-11.27,9.36a4.61,4.61,0,0,1-.89.36,1.27,1.27,0,0,1-.34,0,4.68,4.68,0,0,1-.74-.05c-.26,0-.54-.07-.82-.13q2.34,1.94,4.59,4Zm304.29,77a9.69,9.69,0,0,1-3.79-3.75,10.6,10.6,0,0,1-.89-2c-.12-.34-.22-.69-.31-1a11.46,11.46,0,0,1-.21-4.31,9.8,9.8,0,0,1,1-3.06,8.82,8.82,0,0,1,.56-.93,9,9,0,0,1-1.94.12c-.32,0-.64,0-1-.08a11.23,11.23,0,0,1-1.89-.43,12,12,0,0,1-4.2-2.43,12.9,12.9,0,0,1-1.35-1.42,11.3,11.3,0,0,1-1.54-2.5c-.13-.3-.25-.6-.36-.91a12.21,12.21,0,0,1-.58-2.86c0-.32,0-.65,0-1a12.58,12.58,0,0,1,.15-1.94,13.34,13.34,0,0,1,.74-2.84,14.38,14.38,0,0,1,1.32-2.63,13.72,13.72,0,0,1,1.17-1.58,12.07,12.07,0,0,1,1.38-1.39,19.57,19.57,0,0,0,1.65-1.5,4.09,4.09,0,0,0,.64-.86,2.62,2.62,0,0,0,.22-.48,4.37,4.37,0,0,0,.12-.52,2.55,2.55,0,0,0,0-.73,3.6,3.6,0,0,0-1.7-2.31,6.86,6.86,0,0,0-2.17-.92l-.75-.15-.76-.13a8.78,8.78,0,0,1-4.26-1.45,4.68,4.68,0,0,1-.46-.43c-1.42-1.52-1.51-3.81-.93-6a12.36,12.36,0,0,1,.43-1.3c.08-.21.17-.42.26-.62a13.16,13.16,0,0,1,.61-1.18l.33-.56c.46-.75.95-1.5,1.42-2.25.35-.56.69-1.13,1-1.71.21-.39.39-.77.56-1.17a9.57,9.57,0,0,0,.59-1.81,7.74,7.74,0,0,0-1.59-6.45,12.63,12.63,0,0,0-8.84-5,21.95,21.95,0,0,1-7.11-2.25,17.61,17.61,0,0,1-2.82-1.78,11.93,11.93,0,0,1-1.58-1.43,9.1,9.1,0,0,1-1.22-1.61,6.71,6.71,0,0,1-.77-1.78,7.58,7.58,0,0,1-.18-1,6.46,6.46,0,0,1,.1-2c0-.2.1-.41.16-.61a9.15,9.15,0,0,1,.78-1.75,12.42,12.42,0,0,1,.67-1.1c.24-.37.48-.73.73-1.09l.37-.54a9.78,9.78,0,0,0,1.79-4c.35-2.53-.94-4.76-2.59-6.9-.27-.36-.56-.71-.85-1.07-.57-.71-1.17-1.41-1.73-2.11-2-2.47-3.59-5-2.82-7.84a5.25,5.25,0,0,1,.22-.67,7.77,7.77,0,0,1,1.07-1.82,15.23,15.23,0,0,1,1.47-1.64c1.6-1.58,3.42-3,4.33-4.72l-.2-.14-.4-.26a16.26,16.26,0,0,1-1.6-1.39l-1-1-1-1a9.31,9.31,0,0,0-4.51-2.86c-.23,0-.45-.07-.68-.09a5.19,5.19,0,0,0-2.24.34,6,6,0,0,0-1.32.7,9,9,0,0,0-1.7,1.62,13.68,13.68,0,0,0-1,1.34,22.78,22.78,0,0,0-2.13,4.59,25.42,25.42,0,0,1-2.42,5.35,8.75,8.75,0,0,1-3.3,3.24,5.66,5.66,0,0,1-2.21.58c-2.67.13-4.46-1.42-5.95-3.62-1.91-2.82-3.32-6.7-5.4-9.42a16.21,16.21,0,0,0-5.39,4.29c-.51.59-1,1.21-1.44,1.85s-.91,1.3-1.34,2c-.22.34-.43.68-.64,1-.42.68-.83,1.37-1.24,2.06-.61,1-1.22,2.07-1.84,3.07-.42.67-.87,1.34-1.35,2s-1,1.29-1.53,1.91a20.76,20.76,0,0,1-3.54,3.28,10.94,10.94,0,0,1-8.55,2.3c-.28-.06-.55-.12-.81-.2a9.16,9.16,0,0,1-2.24-1,10.94,10.94,0,0,1-2.54-2.11,13.62,13.62,0,0,1-1.51-2,15.13,15.13,0,0,1-1.68-3.87,24,24,0,0,1-.76-6.59c0-2.24.24-4.48.46-6.71a16,16,0,0,0-6.78,2.23,30.72,30.72,0,0,0-2.64,1.73c-.56.42-1.12.86-1.67,1.31s-1.08.91-1.61,1.38-1.06.94-1.57,1.42l-.77.7c-1,1-2.09,1.9-3.18,2.8-.55.45-1.1.89-1.66,1.31l-.86.61a18.15,18.15,0,0,1-7.52,3.24,7.32,7.32,0,0,1-1,.1,11.09,11.09,0,0,1-5.17-1.06,10.67,10.67,0,0,1-1.82-1.06,7.36,7.36,0,0,1-3.38-6.81,9.22,9.22,0,0,1,.47-1.86c.47-1.33,1.14-2.62,1.53-4a6.28,6.28,0,0,0,.19-.86c-3.24,1.34-6.55,2.43-9.79,3.49-8.08,2.65-21.56,3.47-26.67,4-1.35,5.17,6.14,7,8.9,8.56,7.87,8.16,15.17,16.91,22.43,25.64l26.89,32.35,1.62,2,3.22,3.93c1,1.33,2.1,2.66,3.11,4s2,2.72,3,4.11c.48.7.94,1.41,1.4,2.12,1.34,2.08,2.57,4.21,3.75,6.38,1.76,3.26,3.38,6.6,4.95,10s3.11,6.75,4.7,10.09q2.79,5.86,5.83,11.58,1.52,2.88,3.08,5.71c3.12,5.69,6.36,11.31,9.65,16.9q3.3,5.59,6.63,11.15c.61,1,1.23,2.06,1.86,3.08s1.29,2,2,3a34.76,34.76,0,0,0,4.58,5.48,27.37,27.37,0,0,0,2.32,2c4.43,3.42,9.71,5.65,14.8,8.19.92.46,1.84.93,2.74,1.42.46.24.9.49,1.35.75a53.68,53.68,0,0,1,8.18,5.78c.64.54,1.26,1.1,1.87,1.67,1.23,1.15,2.4,2.34,3.51,3.59,3.9,4.37,7.13-11.13,9.48-5.77q1,2.29,1.8,4.69a17.92,17.92,0,0,0,3.41-1.66c5.8-3.63,9.23,10.08,11.71,3.14.67-1.9,1.28-3.8,1.84-5.66,1.83-6.05,1.1-12.1,2.93-18.15V219.25l-.75-1.11c-1-.4.52-.76-.43-1.27Zm-946.1-74.14c.14,2,.24,3.89.19,5.78,0,.63,0,1.26-.1,1.88a23.47,23.47,0,0,1-.59,3.63c-.11.45-.23.89-.37,1.33s-.27.74-.41,1.11a.84.84,0,0,1,.06-.14.84.84,0,0,0-.06.14c-.13.31-.27.61-.41.91-.07.15-.13.3-.21.44-.23.45-.47.89-.74,1.32s-.72,1.05-1.11,1.54-.82,1-1.25,1.43c-.87.91-1.81,1.78-2.76,2.63s-1.9,1.71-2.82,2.6a26.18,26.18,0,0,0-2.54,2.83c-4.09,5.43-4.79,12.58-6.23,19.23a79.19,79.19,0,0,1-2.33,8.4q-.93,2.75-2.07,5.43A79.12,79.12,0,0,1,617,220.73q-1.78,2.29-3.74,4.45t-4.06,4.16c-.67.64-1.35,1.27-2,1.9-1.37,1.25-2.77,2.51-4.11,3.82-.67.65-1.32,1.31-2,2a22.91,22.91,0,0,0-5.59,9.21,18.73,18.73,0,0,0-.52,7.07,33.86,33.86,0,0,0,2.19,8.45c.18.46.36.92.55,1.38.38.92.78,1.83,1.18,2.73s.83,1.79,1.25,2.66c7.72,16.27,15.45,12.07,23.17,28.34.49,1,1,2.05,1.46,3.09.27.57.53,1.15.79,1.73H987.89c-.26-.23-.53-.44-.78-.67a54.64,54.64,0,0,1-9.45-11.34,62.4,62.4,0,0,1-7.21-16.3c-.21-.77-.4,18.92-.56,18.13a15.93,15.93,0,0,1-.28-2.38,10.08,10.08,0,0,1,.16-2.33,7.27,7.27,0,0,1,.8-2.17A6.36,6.36,0,0,1,971,284a12.09,12.09,0,0,1,2.4-2.34c.45-.35.92-.69,1.39-1,2.09-1.51,4.15-3,4.66-5.43a5.22,5.22,0,0,0-.6-3.65,8,8,0,0,0-.9-1.26,7.33,7.33,0,0,0-.55-.57,10.73,10.73,0,0,0-1.27-1.05,14.5,14.5,0,0,0-2.19-1.27c-.51-.23-1-.44-1.56-.62q-.39-.14-.78-.24c-4.15-1.14-9-1.66-11.57-5.1a7.77,7.77,0,0,1-1.13-2.08,9,9,0,0,1-.47-2.23,12.21,12.21,0,0,1,.07-2.34,20.79,20.79,0,0,1,.85-3.65c.92-2.88,2.31-5.81,3.29-8.56a22.87,22.87,0,0,0,1.21-5.17,23.86,23.86,0,0,0,.16-3.49c0-.58,0-1.16-.11-1.74a26.92,26.92,0,0,0-.55-3.45,28.43,28.43,0,0,0-1-3.38,30.57,30.57,0,0,0-2.22-4.83,32.56,32.56,0,0,0-4.16-5.79,33.55,33.55,0,0,0-2.53-2.53,29,29,0,0,0-12.26-6.65,23.55,23.55,0,0,0-3.44-.59,23,23,0,0,0-5.31.07c-1.43-3.81,1.29-8.07,2.83-12a17.29,17.29,0,0,0,.62-1.84,8,8,0,0,0,.3-2.92,4,4,0,0,0-.12-.69,5,5,0,0,0-1-2,5.09,5.09,0,0,0-.56-.58l-.14-.13a6.85,6.85,0,0,0-.61-.45,5.94,5.94,0,0,0-.67-.33L933,184a4.52,4.52,0,0,0-.71-.23,6.2,6.2,0,0,0-1.13-.19,17.44,17.44,0,0,0-4,.2l-2.13.3a19.4,19.4,0,0,1-5.24.21c-9.08-1.31-10.2-14.69-5.53-22.58a46.47,46.47,0,0,1,2.91-4.31c.7-.93,1.41-1.85,2.14-2.76a68,68,0,0,0,7-9.84,24.18,24.18,0,0,0,1.38-3.07,18.54,18.54,0,0,0,.9-3.26c-1-.54-2-1.05-3-1.54l-.9-.43c-.77-.36-1.53-.71-2.3-1.05l-.93-.39c-1-.44-2.1-.87-3.16-1.27s-2.37-.86-3.57-1.25a88,88,0,0,0-11.74-2.94q-3.74-.66-7.5-1t-7.56-.33q-3,0-6,.22h0a9.56,9.56,0,0,0,2.54-2.87,12.16,12.16,0,0,0,1.23-8.76,10.73,10.73,0,0,0-1.48-3.54,9.58,9.58,0,0,0-1.18-1.51,8.76,8.76,0,0,0-1.47-1.25,19.08,19.08,0,0,0-3-1.64c-1.45-.64-3-1.21-4.43-1.82-.72-.31-1.42-.63-2.07-1-2.29-1.21-4-2.77-4.26-5.35a6.15,6.15,0,0,1,0-1,5.22,5.22,0,0,1,.42-1.74,7,7,0,0,1,.92-1.53,10.54,10.54,0,0,1,1.29-1.38c.48-.44,1-.86,1.57-1.28s1.13-.83,1.71-1.24a37.09,37.09,0,0,0,4.21-3.26q-2-4.47-4-9t-3.85-9a5.41,5.41,0,0,0-1.15-.4,5.55,5.55,0,0,0-1.14-.14,5.74,5.74,0,0,0-1.48.2,7,7,0,0,0-1.44.55,12,12,0,0,0-1.42.84,21.15,21.15,0,0,0-2.09,1.69c-.46.41-.92.85-1.37,1.3l-1.38,1.37-.69.69c-.45.46-.91.91-1.37,1.35l-.7.64c-.46.42-.92.82-1.39,1.19a15.06,15.06,0,0,1-1.42,1c-.24.15-.48.28-.72.41s-.48.23-.72.33a6.55,6.55,0,0,1-2.23.48,6.45,6.45,0,0,1-.76,0,5,5,0,0,1-.77-.15,7.41,7.41,0,0,1-.79-.28,5.55,5.55,0,0,1-2-1.42,7.22,7.22,0,0,1-1.29-2.06,18.47,18.47,0,0,1-1.09-3.86c-.18-.92-.33-1.87-.5-2.81-.59-3.28-1.36-6.48-3.93-8.18a6.27,6.27,0,0,0-4.17-1,8.75,8.75,0,0,0-1.75.35,15.59,15.59,0,0,0-5,2.75,24.54,24.54,0,0,0-2.15,1.92,62,62,0,0,0-11.52,16.23,59.91,59.91,0,0,0-2.6,6.13c-.41,1.11-.78,2.23-1.17,3.35s-.78,2.24-1.22,3.33a26.15,26.15,0,0,1-1.53,3.15,16.15,16.15,0,0,1-2,2.82,10.52,10.52,0,0,1-2,1.72,11,11,0,0,1-3.28,1.45,9.34,9.34,0,0,1-2.58.3,7.9,7.9,0,0,1-.85-.07,7.48,7.48,0,0,1-1.61-.42,6.5,6.5,0,0,1-1.11-.58,6,6,0,0,1-1-.82c-.17-.18-.34-.37-.49-.56a7.89,7.89,0,0,1-1.08-1.92,11.17,11.17,0,0,1-.59-2.2,21.24,21.24,0,0,1-.23-2.39c-.06-1.64,0-3.35.07-5,0-.56,0-1.1,0-1.64a22.33,22.33,0,0,0-.16-3.06,12.49,12.49,0,0,0-.28-1.38,6.06,6.06,0,0,0-1.14-2.3,5,5,0,0,0-1-.88,5.67,5.67,0,0,0-1.24-.66c-4-1.54-6.77,1.86-9.65,5.64l-1,1.27q-.48.63-1,1.26a17,17,0,0,1-4.92,4.45c-.27.14-.54.26-.82.38a6.22,6.22,0,0,1-2.13.43,7.13,7.13,0,0,1-.8,0,7.25,7.25,0,0,1-2.32-.66,9.08,9.08,0,0,1-4.87-5.68,6.51,6.51,0,0,1-.21-1,6.34,6.34,0,0,1,.47-3.19l-25,10.51a11,11,0,0,1-5,1.23,5.3,5.3,0,0,1-3.3-1.47,7.18,7.18,0,0,1-.82-.93,8.61,8.61,0,0,1-1.16-2.28,9.18,9.18,0,0,1-.47-2.6c-.83.46-1.66.9-2.47,1.33s-1.61.84-2.39,1.23-1.56.76-2.32,1.11-1.49.67-2.22,1a30,30,0,0,1-5,1.61,13.75,13.75,0,0,1-2.56.29,14.42,14.42,0,0,0-5.24,1.54q-1.32.6-2.82,1.38c-1,.52-2.05,1.1-3.15,1.73-2.21,1.26-4.6,2.71-7.13,4.3-1.89,1.19-3.85,2.45-5.86,3.75l-4.06,2.65c-5.48,3.58-11.13,7.32-16.42,10.63l-2,1.23c-1.31.8-2.58,1.56-3.82,2.3-1.86,1.09-3.65,2.1-5.32,3C650.16,133.5,650.74,138.17,651.07,142.73ZM138.74,162.79q-1.44,3.51-2.73,7.07a181.57,181.57,0,0,0-6.46,21.79q-.86,3.71-1.54,7.44c-.46,2.5-.86,5-1.21,7.52-2,14.6-2.21,29.62-7,43.57-7.61,22.37-26.07,19.14-34.65,41.15a90,90,0,0,0-3.3,10.38H463.24l-26.75-15.43a44.12,44.12,0,0,1,19.95-10.08c-.48-.78-1-1.56-1.48-2.33-1-1.54-2.06,17.42-3.15,15.94s-2.21-2.94-3.37-4.37-2.36-2.83-3.6-4.19c-1.84-2.05-3.77-4-5.77-5.94-1.33-1.27-2.7-2.5-4.09-3.71s-2.82-2.37-4.27-3.5q-3.25-2.55-6.71-4.86c-.77-.51-1.54-1-2.32-1.5q-2.32-1.49-4.73-2.84a109.06,109.06,0,0,0-30.83-11.78c.4-.45.78-.91,1.16-1.39a33.51,33.51,0,0,0,5.78-11.23l-17.74-3.17a5.88,5.88,0,0,1-.44-.91,5.34,5.34,0,0,1-.36-1.85,5.81,5.81,0,0,1,.06-.93,7.6,7.6,0,0,1,1-2.73,9.69,9.69,0,0,1,.57-.85,11.15,11.15,0,0,1,1.4-1.59,13.38,13.38,0,0,1,2.15-1.68,13,13,0,0,1,2.41-1.22c.33-.12.67-.23,1-.33.67-.19,1.35-.34,2-.48,1.37-.28,2.77-.47,4.17-.68.69-.11,1.39-.21,2.08-.33a27.66,27.66,0,0,0,4-1l1-.35c.52-.22,1-.46,1.53-.73a12.64,12.64,0,0,0,1.17-.72,11.94,11.94,0,0,0,3.82-4.6,13.72,13.72,0,0,0,.95-2.86,16.07,16.07,0,0,0,.37-3.85,18.63,18.63,0,0,0-.49-3.94,20.4,20.4,0,0,0-1-3.05,19.92,19.92,0,0,0-1.46-2.83c-.28-.45-.58-.88-.9-1.3-3.18-4.15-7.57-7-12.3-9.35-.95-.47-1.91-.91-2.88-1.34s-1.95-.84-2.93-1.24-1.95-.79-2.92-1.18l-15.75-6.27c-.61-.24-1.22-.49-1.82-.75s-1.2-.54-1.77-.85a11.34,11.34,0,0,1-3.09-2.32c-3.92-4.35-2.23-11.7,2-15.75a20.87,20.87,0,0,1,5.38-3.63,35.18,35.18,0,0,1,4.09-1.63c.69-.23,1.4-.45,2.12-.66,1.42-.41,2.85-.78,4.27-1.14a16.79,16.79,0,0,0-1.12-1.54,27.36,27.36,0,0,0-4.31-4,12,12,0,0,1-5.93,1.2,13,13,0,0,1-6.54-2.22,17.6,17.6,0,0,1-2.22-1.75,22,22,0,0,1-2-2.11,27.54,27.54,0,0,1-1.74-2.39,32.52,32.52,0,0,1-2.15-3.93c-.41-.9-.78-1.81-1.11-2.72s-.63-1.82-.92-2.75c-.15-.47-.29-.93-.43-1.39-.28-.94-.56-1.87-.83-2.81-.55-1.87-1.11-3.74-1.76-5.55-.32-.91-.66-1.81-1-2.69s-.78-1.74-1.23-2.58c-.33-.63-.69-1.25-1.08-1.85s-.8-1.19-1.24-1.76a12.6,12.6,0,0,0-1-1.1,14.55,14.55,0,0,0-1.06-1,16.63,16.63,0,0,0-1.8-1.32,14.94,14.94,0,0,0-1.94-1.11,14.7,14.7,0,0,0-1.36-.59,15.47,15.47,0,0,0-4.23-1,13.27,13.27,0,0,0-1.41,0,10.65,10.65,0,0,0-2.8.46,7.79,7.79,0,0,0-1.14.42,8.61,8.61,0,0,0-3.22,2.51c-2.94,3.68-2.93,9.24-3.28,14.28-.05.63-.1,1.25-.16,1.86-.1.91-.22,1.79-.39,2.63a16.48,16.48,0,0,1-.41,1.61,10.29,10.29,0,0,1-1,2.14,7.44,7.44,0,0,1-.67.92,7.13,7.13,0,0,1-5.18,2.39,7.08,7.08,0,0,1-2.14-.33,8.87,8.87,0,0,1-2-1,11,11,0,0,1-1.4-1.06,14.39,14.39,0,0,1-1.29-1.3c-.27-.31-.53-.64-.79-1a18.77,18.77,0,0,1-1.39-2.15,20.83,20.83,0,0,1-1.95-4.65c-.75-2.73-1.41-5.7-2.4-8.42a23.65,23.65,0,0,0-.94-2.25,14,14,0,0,0-2.6-3.85,10.22,10.22,0,0,0-.84-.77,9.77,9.77,0,0,0-2-1.26c-6.44-3.09-14.06,2.22-17.32,8.58a56.72,56.72,0,0,0-3.66,10.06c-.38,1.29-.76,2.57-1.18,3.85-.28.85-.57,1.69-.89,2.52a32.28,32.28,0,0,1-1.64,3.65A18.07,18.07,0,0,1,253.71,138a10.22,10.22,0,0,1-1.24.31,10.56,10.56,0,0,1-2.51.15,8.94,8.94,0,0,1-3.67-1l-3.37-14.62a6.66,6.66,0,0,0-1.56-.58,5.4,5.4,0,0,0-1.5-.12,5.73,5.73,0,0,0-1.43.26c-.24.08-.47.17-.7.27a10.62,10.62,0,0,0-2.37,1.49,26,26,0,0,0-2.3,2.15c-.22.23-.44.46-.65.7-.44.47-.88,1-1.32,1.46l-2,2.25c-.68.74-1.37,1.47-2.09,2.15a21.93,21.93,0,0,1-2.2,1.89,14.19,14.19,0,0,1-1.55,1,11.57,11.57,0,0,1-1.64.76,8.34,8.34,0,0,1-.85.26,6.87,6.87,0,0,1-.88.18,6,6,0,0,1-.83.09,7.51,7.51,0,0,1-.82,0c-.27,0-.54,0-.8-.07a9.26,9.26,0,0,1-1.56-.35,15.64,15.64,0,0,1-4.39-2.31c-.71-.5-1.41-1-2.1-1.61l-.7-.57L207.29,131c-.46-.39-.92-.78-1.39-1.16s-.94-.74-1.41-1.09-1.2-.86-1.8-1.24a14.25,14.25,0,0,0-2.82-1.4,9.9,9.9,0,0,0-3-.62c-.28,0-.56,0-.85,0a8.86,8.86,0,0,0-2,.39l-.68.23-.68.29c-.46.2-.91.44-1.36.69s-.91.53-1.36.82-.91.6-1.36.91c-.68.47-1.35,1-2,1.45s-1.36,1-2,1.45c-.45.3-.9.6-1.35.88-2.94,1.83-5.89,2.92-8.87,1.51a9.69,9.69,0,0,1-3.81-2.87c-9.38,7.6-18.66,14.58-25.41,17.76-.57,1.13-1.13,2.27-1.67,3.41Q140.9,157.54,138.74,162.79Z"/><path class="cls-3" d="M174.24,133.81c3,1.41,5.93.32,8.87-1.51.45-.28.9-.58,1.36-.89.67-.46,1.35-.95,2-1.43l2-1.46c.46-.31.91-.62,1.36-.91s.91-.56,1.36-.82.91-.48,1.36-.69l.68-.29a9.09,9.09,0,0,1,2.73-.61,7.85,7.85,0,0,1,.84,0c2.78.12,5.25,1.49,7.62,3.26.47.35.94.72,1.41,1.1s.93.76,1.4,1.14l1.38,1.17.7.57c.7.56,1.4,1.11,2.1,1.61a15.7,15.7,0,0,0,4.4,2.31,9.37,9.37,0,0,0,1.55.35c.27,0,.53.06.8.07a8.27,8.27,0,0,0,1.65-.1,9.34,9.34,0,0,0,1.73-.44,10.63,10.63,0,0,0,1.64-.76,14.32,14.32,0,0,0,1.56-1,23.11,23.11,0,0,0,2.2-1.89c.71-.68,1.4-1.41,2.08-2.15s1.35-1.51,2-2.25c.44-.5.87-1,1.31-1.46l.65-.7a15.81,15.81,0,0,1,4.67-3.64,6.5,6.5,0,0,1,2.14-.53,6,6,0,0,1,3.06.7q1.68,7.3,3.37,14.62a9,9,0,0,0,3.67,1,10.57,10.57,0,0,0,2.51-.16,10.7,10.7,0,0,0,1.24-.31,18,18,0,0,0,10.06-8.66,34.22,34.22,0,0,0,1.65-3.65c.32-.83.61-1.67.89-2.52.42-1.27.8-2.56,1.18-3.85A57.78,57.78,0,0,1,271.14,109c3.27-6.35,10.89-11.66,17.33-8.58a9.77,9.77,0,0,1,2,1.26,8.82,8.82,0,0,1,.84.78,14.07,14.07,0,0,1,2.6,3.84,23.84,23.84,0,0,1,.94,2.26c1,2.71,1.64,5.69,2.4,8.41a21.35,21.35,0,0,0,1.94,4.66,20.17,20.17,0,0,0,1.4,2.14c.26.33.52.66.79,1a12.6,12.6,0,0,0,2.69,2.36,8.87,8.87,0,0,0,2,1,6.88,6.88,0,0,0,8-3,10.21,10.21,0,0,0,1-2.13c.16-.53.3-1.07.41-1.62a26.06,26.06,0,0,0,.39-2.63c.06-.61.11-1.23.16-1.86.35-5,.34-10.6,3.28-14.28a8.69,8.69,0,0,1,3.22-2.51,10.1,10.1,0,0,1,3.95-.87,11,11,0,0,1,1.4,0,15.46,15.46,0,0,1,4.23,1c.46.18.92.38,1.36.59a17.68,17.68,0,0,1,1.94,1.11,15.47,15.47,0,0,1,1.8,1.33,15,15,0,0,1,2,2.11,24.37,24.37,0,0,1,2.32,3.61q.67,1.26,1.23,2.58c.38.88.72,1.78,1,2.69.64,1.82,1.2,3.68,1.75,5.55.28.94.55,1.88.83,2.81l.43,1.39c.29.93.6,1.85.93,2.75s.7,1.82,1.11,2.72a32.46,32.46,0,0,0,2.14,3.93,27.54,27.54,0,0,0,1.74,2.39,22.06,22.06,0,0,0,2,2.11,17.09,17.09,0,0,0,2.22,1.75,13,13,0,0,0,6.53,2.22,12.19,12.19,0,0,0,5.94-1.2c-.74-.58-1.51-1.14-2.27-1.69L366,138.1c-1.15-.81-2.3-1.62-3.37-2.45a19.51,19.51,0,0,1-5.24-5.53,9.92,9.92,0,0,1-1.18-3.43,10.86,10.86,0,0,1-.1-1.28,9.57,9.57,0,0,1,.28-2.44,8.28,8.28,0,0,1,.5-1.45,5.52,5.52,0,0,1,.34-.69,9.55,9.55,0,0,1,.83-1.27,12.73,12.73,0,0,1,2.91-2.67c.45-.31.93-.6,1.43-.88l.76-.4a26.94,26.94,0,0,1,4.16-1.62,36,36,0,0,1,3.58-.9c.6-.12,1.21-.22,1.82-.32,1.51-.23,3-.39,4.44-.47a111.43,111.43,0,0,0-23.84-16.66q-4.32-2.23-8.82-4.09L360,76.71a36.71,36.71,0,0,1-4.94-6c-.56-.88-1.09-1.77-1.59-2.69s-.94-1.86-1.36-2.82-.78-1.93-1.11-2.92a35.11,35.11,0,0,1-1.47-6.07c-.08-.51-.14-1-.2-1.55a10.86,10.86,0,0,0,2.7-.59,11.6,11.6,0,0,0,6.24-5.23,26.76,26.76,0,0,0-2-4.85,28,28,0,0,0-2-3.35c-.51-.71-1.05-1.4-1.62-2.06a28,28,0,0,0-4.81-4.42c-.71-.51-1.45-1-2.2-1.42A6.69,6.69,0,0,0,346.79,31a6.57,6.57,0,0,0,.5-1.91,10.1,10.1,0,0,0-.18-3.1,21.72,21.72,0,0,0-.95-3.26c-.4-1.1-.87-2.2-1.34-3.28-.31-.73-.63-1.44-.92-2.14-.15-.35-.29-.7-.43-1a9.53,9.53,0,0,1-.54-3.26,22.75,22.75,0,0,1,.08-2.48c.07-.84.17-1.68.28-2.47.06-.39.12-.78.17-1.15q-1.8,1.48-3.84,3.24l-2.8,2.46-3,2.68c-3.57,3.24-7.48,6.88-11.59,10.78-1.18,1.11-2.37,2.25-3.58,3.4l-5.52,5.3q-1.87,1.8-3.76,3.64-2.85,2.74-5.73,5.55l-3.85,3.75-1.92,1.88L294,53.29,290.2,57l-3.79,3.69c-1.88,1.84-3.74,3.64-5.58,5.43L279,67.9c-1.21,1.17-2.4,2.33-3.58,3.46-3.53,3.41-6.91,6.63-10.06,9.59-1.06,1-2.08,2-3.08,2.87-8.48,7.87-14.93,13.38-17.67,14.52-12.48,5.2-27-2.08-39.53,4.89-.78.44-1.7,1-2.72,1.73s-2.15,1.54-3.37,2.48-2.54,2-3.94,3.1-2.86,2.33-4.39,3.59c-2.29,1.9-4.72,3.94-7.23,6.05-4.19,3.5-8.61,7.2-13,10.76A9.69,9.69,0,0,0,174.24,133.81Zm350.83-9.41a4.28,4.28,0,0,0,.57.37,3.9,3.9,0,0,0,1.2.42,4.5,4.5,0,0,0,.63.07,5.62,5.62,0,0,0,1.29-.1,10,10,0,0,0,1.33-.36,14.51,14.51,0,0,0,1.34-.56c.45-.21.9-.44,1.34-.68l1.3-.73,1.26-.72c.5-.28,1-.54,1.55-.78a21.37,21.37,0,0,1,8.4-1.91,21,21,0,0,1,3.45.21l.63,10.48.63,10.48c0,.38,0,.77.08,1.16a7.57,7.57,0,0,0,.72,2.77,4.94,4.94,0,0,0,.3.49,4,4,0,0,0,1,1,5.27,5.27,0,0,0,4.76.27,8.5,8.5,0,0,0,2-1.1c.2-.15.41-.32.6-.49a7.29,7.29,0,0,0,1-1.13c.15-.21.28-.42.41-.64a19.83,19.83,0,0,0,1.94-7.16,44.68,44.68,0,0,1,.77-4.46,11.89,11.89,0,0,1,2.91-5.36,9.3,9.3,0,0,1,1.12-1,6.11,6.11,0,0,1,1.91-.91,5.41,5.41,0,0,1,1.39-.18c.25,0,.49,0,.74.06a5.63,5.63,0,0,1,2.35,1,8,8,0,0,1,1.44,1.29c.3.33.58.68.85,1,.54.73,1,1.53,1.51,2.33.36.59.7,1.19,1,1.76a16.88,16.88,0,0,0,1,1.51,16.33,16.33,0,0,0,1.23,1.41c1.14-1.1,2.43-2.15,3.65-3.26a24,24,0,0,0,2.54-2.6,10.29,10.29,0,0,0,.69-.94,5.63,5.63,0,0,0-.89-1.72c-1.66-2.2-4.8-3.3-7.47-4.46-3.3-1.41-6.85-4.53-5.69-7.93a4.51,4.51,0,0,1,1-1.62,6.87,6.87,0,0,1,1.54-1.2,19.46,19.46,0,0,1,2.9-1.33,21.27,21.27,0,0,0,4.7-2.15,4.83,4.83,0,0,0,1.25-1.26,3.9,3.9,0,0,0,.44-3.09,3.49,3.49,0,0,0-.59-1.15,5.12,5.12,0,0,0-.44-.49,5.77,5.77,0,0,0-1.13-.83c-.21-.12-.43-.23-.66-.34a10.59,10.59,0,0,0-1.46-.53A14.43,14.43,0,0,0,580,99a16.87,16.87,0,0,0-3.17-.24,7.35,7.35,0,0,1,.19-2.6,6.09,6.09,0,0,1,.25-.83,8.7,8.7,0,0,1,1.25-2.3,9.24,9.24,0,0,1,2.57-2.36,8.39,8.39,0,0,1,2.39-1,7.57,7.57,0,0,1,1.74-.2,2.3,2.3,0,0,1-.47-.56c-.25-.37-.6-.89-1-1.53l-.92-1.43-.13-.06a4.91,4.91,0,0,0-1.85-.43,12.92,12.92,0,0,0-4.92,1c-1,.34-2,.77-3,1.27s-2.16,1.08-3.31,1.73-2.34,1.37-3.57,2.14-2.5,1.61-3.8,2.5c-2.6,1.76-5.32,3.73-8.12,5.83-1.4,1-2.82,2.13-4.24,3.23-2.86,2.21-5.77,4.52-8.67,6.85L539,111.68c-2.17,1.75-4.33,3.51-6.46,5.24-2.85,2.3-5.63,4.56-8.31,6.7a6.38,6.38,0,0,0,.86.78ZM723.85,92.32A8.18,8.18,0,0,0,725,94.6a7.1,7.1,0,0,0,.81.93A5.35,5.35,0,0,0,729.13,97a11.08,11.08,0,0,0,5-1.23l25-10.5h0a6.34,6.34,0,0,0-.27,4.23,9.11,9.11,0,0,0,4.88,5.69,7.13,7.13,0,0,0,3.12.68,6,6,0,0,0,2.13-.43,15.23,15.23,0,0,0,5.74-4.83l1-1.26c.33-.42.65-.85,1-1.27,2.88-3.78,5.61-7.17,9.65-5.63a5.24,5.24,0,0,1,1.24.65,5,5,0,0,1,1,.88,6.1,6.1,0,0,1,1.14,2.31,10.7,10.7,0,0,1,.27,1.37,20.86,20.86,0,0,1,.17,3.06c0,.54,0,1.08,0,1.64,0,1.65-.13,3.36-.07,5a21.24,21.24,0,0,0,.23,2.39,11.17,11.17,0,0,0,.59,2.2,7.89,7.89,0,0,0,1.08,1.92,6.55,6.55,0,0,0,.49.56,6.19,6.19,0,0,0,2.1,1.4,7.48,7.48,0,0,0,1.61.42,7.9,7.9,0,0,0,.85.07,9.34,9.34,0,0,0,2.58-.3,10.85,10.85,0,0,0,3.28-1.45,10.23,10.23,0,0,0,2.05-1.72,19.92,19.92,0,0,0,3.56-6c.44-1.09.84-2.21,1.23-3.33s.76-2.24,1.16-3.35a58.81,58.81,0,0,1,2.6-6.12,61.52,61.52,0,0,1,7.11-11.25,63.16,63.16,0,0,1,4.41-5,24.25,24.25,0,0,1,2.15-1.91,15.93,15.93,0,0,1,5-2.76,9.52,9.52,0,0,1,1.75-.35,6.26,6.26,0,0,1,4.17,1c2.58,1.71,3.34,4.9,3.93,8.19.17.94.33,1.88.5,2.8a18.58,18.58,0,0,0,1.1,3.87,7.48,7.48,0,0,0,1.28,2.06,5.71,5.71,0,0,0,2,1.42,5.93,5.93,0,0,0,1.55.42,5,5,0,0,0,.77,0,6.79,6.79,0,0,0,3-.81c.24-.12.48-.26.71-.4a14.44,14.44,0,0,0,1.42-1c.47-.36.94-.76,1.4-1.18l.69-.65c.46-.43.92-.89,1.38-1.35l.69-.69c.45-.46.91-.92,1.37-1.37s.92-.88,1.38-1.3a21,21,0,0,1,2.09-1.68,11.34,11.34,0,0,1,1.42-.85,7.37,7.37,0,0,1,1.44-.55,5.67,5.67,0,0,1,1.48-.19,5.44,5.44,0,0,1,2.28.53q1.88,4.55,3.85,9c1.32,3,2.65,6,4,9,.23-.22.45-.44.67-.67s.41-.47.6-.72a9.6,9.6,0,0,0,1.82-7.09,13.44,13.44,0,0,0-1-3.74,15.5,15.5,0,0,0-5.88-7,21.79,21.79,0,0,0-4.68-2.15c-.81-.26-1.64-.48-2.49-.67a44.51,44.51,0,0,0-7.8-.91c-.89,0-1.77-.06-2.65-.07h-2.62a20.41,20.41,0,0,1,.36-2.47,22.63,22.63,0,0,1,2.67-7,22.09,22.09,0,0,1,1.37-2.09,20.76,20.76,0,0,1,1.59-1.92,21.69,21.69,0,0,1,3.76-3.27c-2.33.46-4-1.39-4.79-3.75a9,9,0,0,1-.41-3,7.8,7.8,0,0,1,.2-1.44c.11-.46.25-.92.4-1.38.22-.68.48-1.36.74-2A33,33,0,0,0,861,33.72c0-.23.1-.46.14-.69a9,9,0,0,0,.13-2.07c0-.24,0-.47-.07-.71A8.07,8.07,0,0,0,857.82,25a14.35,14.35,0,0,0-1.89-1.2l-1-.5a23,23,0,0,0-2.22-.85A35.33,35.33,0,0,0,848,21.26l-1.14-.19a4.53,4.53,0,0,1-.6-1.18,3.15,3.15,0,0,1,.31-2.64,6,6,0,0,1,.71-1,29.79,29.79,0,0,1,5.5-4.16c.71-.47,1.43-1,2.12-1.45a22.69,22.69,0,0,0,2-1.57,11.39,11.39,0,0,0,2-2.33,7.18,7.18,0,0,0,.65-1.3,5.82,5.82,0,0,0,.35-1.41c0-.41.07-.8.08-1.17a8.18,8.18,0,0,0-.2-2,5.13,5.13,0,0,0-.26-.87,22.19,22.19,0,0,0-3.79.88,39.09,39.09,0,0,0-4.33,1.67c-1,.45-2.06,1-3.14,1.51s-2.2,1.15-3.34,1.8l-1.73,1c-1.17.69-2.36,1.42-3.58,2.19-9.14,5.77-19.6,13.69-30.07,22.06q-2.1,1.68-4.19,3.37c-13.24,10.71-26.21,21.77-36.25,29.72l-3.07,2.4c-1,.76-1.93,1.49-2.85,2.17-5,3.75-8.87,6.22-11,6.72a49.5,49.5,0,0,0-10.07,3.92c-.61.3-1.22.6-1.83.92-1.23.63-2.47,1.3-3.73,2-4.39,2.4-8.9,5.06-13.17,7.4A9.24,9.24,0,0,0,723.85,92.32ZM1172,126.17a4.31,4.31,0,0,0,.52.6,4.6,4.6,0,0,0,2.94,1.31c2.14.2,5-.67,8.88-3,1.15-.7,2.33-1.46,3.54-2.18a32.23,32.23,0,0,1,3.67-2l.94-.38a12.75,12.75,0,0,1,2.84-.73c.32,0,.64-.07,1-.08a8.53,8.53,0,0,1,2.88.39L1199,122c-.37,4.4-.38,9,2,12.64a8.14,8.14,0,0,0,2.43,2.39,8.6,8.6,0,0,0,1.53.81,8.89,8.89,0,0,0,3.3.72,7.25,7.25,0,0,0,1.61-.14,7.81,7.81,0,0,0,5.17-7.83,4.61,4.61,0,0,1,.31-1.33,8.14,8.14,0,0,1,.48-1.33,4.29,4.29,0,0,1,1.16-1.57,6.9,6.9,0,0,1,.23-3.16,7,7,0,0,1,.38-1c.06-.14.13-.28.2-.42l.41-.86c.2-.43.41-.88.58-1.32a5.09,5.09,0,0,0,.22-4.33c-.66-1.27-2.09-2.08-3.24-3a8.62,8.62,0,0,1-.71-.63,3,3,0,0,1-1-2,2.5,2.5,0,0,1,.09-.86,3.05,3.05,0,0,1,.35-.78,7.11,7.11,0,0,1,1.2-1.37l.71-.66c.24-.22.47-.44.7-.68a5.33,5.33,0,0,0,1.1-1.51,3.54,3.54,0,0,0,.34-2,4.13,4.13,0,0,0-.13-.63,4.86,4.86,0,0,0-.56-1.2,8,8,0,0,0-1.44-1.64,13.61,13.61,0,0,0-1.9-1.39,17.28,17.28,0,0,0-2.8-1.37c.65-.37,1.32-.75,2-1.17,1.94-1.25,3.68-2.79,4.24-5a11,11,0,0,0,.33-1.82c0-.18,0-.34,0-.49a25.07,25.07,0,0,0-3.79,1.76c-.36.2-.73.41-1.11.64-1.14.66-2.36,1.43-3.66,2.29-.87.58-1.76,1.19-2.69,1.84s-1.89,1.34-2.87,2.06c-3.44,2.51-7.19,5.42-11.1,8.54l-3.38,2.72c-6.25,5.07-12.77,10.56-18.93,15.77a9.57,9.57,0,0,0,.48,1.82A6.45,6.45,0,0,0,1172,126.17Zm133.73,1.35a7.24,7.24,0,0,0,3-.84c.34-.16.68-.34,1-.54.51-.28,1-.6,1.54-.92,2.25-1.38,4.56-2.86,6.9-2.8a4.93,4.93,0,0,1,.54,0,3.85,3.85,0,0,1,2.24,1.06,7.86,7.86,0,0,1,1.76,3c.56,1.5,1,3.21,1.6,4.78a9.44,9.44,0,0,0,2,3.3,5.58,5.58,0,0,0,1.79,1.2,6.52,6.52,0,0,0,1.37.4,7.08,7.08,0,0,0,1.45.1,9.92,9.92,0,0,0,6.21-2.53,18.13,18.13,0,0,0,3.6-4.72c.24-.43.48-.87.71-1.32.7-1.34,1.35-2.71,2-4a20.67,20.67,0,0,1,4.48-6,9.75,9.75,0,0,1,3.83-2.11h0c.27.83.58,1.65.9,2.48a29.74,29.74,0,0,0,7.16,10.91,22.38,22.38,0,0,0,2,1.62c.36.25.72.49,1.09.71s.75.44,1.14.64a15.61,15.61,0,0,0,6.7,1.64,17.94,17.94,0,0,0,2.32-.12,39.14,39.14,0,0,1,2.23-4.07,26.53,26.53,0,0,0,2.11-4,9,9,0,0,0,.6-2.45,6.24,6.24,0,0,0-.27-2.5c-.8-2.46-3.08-4-5.62-4.83a15.43,15.43,0,0,0-2.58-.56c-1.72-.22-3.47-.23-5.2-.32-.87,0-1.73-.1-2.58-.22a15.49,15.49,0,0,1-2.52-.54,6.84,6.84,0,0,1-1.57-.68,3.54,3.54,0,0,1-1.2-1.17,3.62,3.62,0,0,1-.45-1.28c0-.16,0-.31,0-.47a7.18,7.18,0,0,1,0-.93c0-.32,0-.63,0-.94a30.18,30.18,0,0,0-2.28-12.89c-.33-.81-.71-1.61-1.11-2.39a29.9,29.9,0,0,0-2.83-4.45c.32-1.32.63-2.64.95-4l.47-2a33.64,33.64,0,0,0-3.46,2.07c-1.24.83-2.58,1.8-4,2.88-2.8,2.17-5.89,4.78-9.12,7.66-1.08,1-2.17,1.94-3.28,3s-2.22,2-3.35,3.09l-1.69,1.58-3.39,3.22c-7.36,7-14.68,14.24-20.62,19.79A4.48,4.48,0,0,0,1305.77,127.52Zm143.9-29.25a31.21,31.21,0,0,0-.76,3.58c-.35,2.77,2,4.88,4.22,6.5a11.33,11.33,0,0,0,7,2.13c.35,0,.7,0,1-.1a18.21,18.21,0,0,0,7.53-3.25c.28-.19.57-.4.85-.61.56-.41,1.12-.85,1.66-1.3,1.09-.9,2.15-1.86,3.18-2.8l.78-.71c.51-.47,1-.95,1.56-1.41s1.07-.94,1.62-1.39,1.1-.88,1.67-1.3a25.36,25.36,0,0,1,2.63-1.73c2.11-1.21,3-1.78,5.43-2l1.36-.27h-.85c-.22,2.22-.49,5.19-.51,7.42a26.49,26.49,0,0,0,1,6.91,15.59,15.59,0,0,0,3.84,5.89c.75.83,1.63,1,2.56,1.53.7.43,1.41.29,2.2.52a8,8,0,0,0,.81.2,11,11,0,0,0,8.56-2.29,22,22,0,0,0,3.54-3.28q.81-.93,1.53-1.92c.48-.65.93-1.32,1.34-2,.63-1,1.23-2,1.85-3.07.41-.69.82-1.38,1.24-2.07.21-.34.42-.68.64-1,.43-.67.87-1.33,1.33-2a22.33,22.33,0,0,1,1.45-1.85,13.08,13.08,0,0,1,4.68-4h0c2.09,2.72,3.72,7.16,5.63,10,1.49,2.19,3.76,2.93,6.42,2.8a5.5,5.5,0,0,0,2.21-.58,8.63,8.63,0,0,0,3.31-3.24,25.94,25.94,0,0,0,2.42-5.35,22.7,22.7,0,0,1,2.13-4.58,12.7,12.7,0,0,1,1-1.35,8.66,8.66,0,0,1,1.7-1.61,6.16,6.16,0,0,1,1.31-.71,5.23,5.23,0,0,1,2.25-.33,3.73,3.73,0,0,1,.67.09c1.76.34,2.65,1.75,4,3.09.34.33,1.2.93,1.54,1.28l1,1a20.89,20.89,0,0,0,1.54,1.79c.13.1-.14-.08,0,0s.59-.54.66-.5a5.05,5.05,0,0,0,.5-1.36,4.44,4.44,0,0,0,0-1.5,4.72,4.72,0,0,0-.78-1.93c-1.68-2.51-5.39-4-6.12-7.1a3.87,3.87,0,0,1-.12-.83,5.23,5.23,0,0,1,.17-1.62,20.4,20.4,0,0,1,2.33-4.74A16.24,16.24,0,0,0,1559.6,73a5.4,5.4,0,0,0,.28-3.25q-4.82-2.05-9.42-4.54c-1.53-.83-3-1.69-4.54-2.59s-3-1.83-4.42-2.8c-.36-.24-.72-.49-1.07-.75-.18-.14-.35-.27-.51-.41a5.62,5.62,0,0,1-1.86-2.55,4.28,4.28,0,0,1-.17-1.63,4.69,4.69,0,0,1,.23-1,7.71,7.71,0,0,1,1-2q.33-.48.72-1c.25-.31.51-.62.78-.92l.81-.88.4-.42a5.56,5.56,0,0,0,.39-.44,11.4,11.4,0,0,0,1.38-2,7.49,7.49,0,0,0,.93-2.74,4.69,4.69,0,0,0,0-1.06,3.33,3.33,0,0,0-1-1.87l-4.74-2.25a4,4,0,0,0,1-.59,4.86,4.86,0,0,0,.78-.79,6.19,6.19,0,0,0,.8-5.48,6,6,0,0,0-.47-1.07,33.32,33.32,0,0,0-5.7,3.31c-2.91,2-6.43,4.66-10.35,7.79-4.7,3.74-10,8.13-15.48,12.72l-5.55,4.64c-5.6,4.69-11.3,9.43-16.73,13.8-1.81,1.46-3.58,2.87-5.33,4.24-2.6,2-5.11,4-7.48,5.68-3.16,2.3-6.07,4.28-8.61,5.81-2.21,1.32-4.47,2.57-6.77,3.72s-4.85,1.8-7.21,2.78c0,.29-1.2.49-1.28.77C1450.05,96.56,1450.14,96.94,1449.67,98.27Z"/><path class="cls-3" d="M377.2,112.86s-15.26.39-20.73,9,1.28-9,8.19-9.72S376.5,111.59,377.2,112.86Z"/><path class="cls-3" d="M359,76.52l1.28,1-15.87,15.1-1.28-1.79Z"/><path class="cls-3" d="M348,54l.77,2s7.28-1.57,9.21-5.89.26-.26.26-.26l-.77-1.53Z"/><path class="cls-3" d="M582.68,88.55l3.08,1.53-9,3.84Z"/><path class="cls-3" d="M574,111.32l6.15-5.37,6.14-.26-6.91,5.89Z"/><path class="cls-3" d="M581.15,134.61a5.29,5.29,0,0,1-2-3.33c-.25-2.08,9.21-4.09,9.21-4.09S584.17,134.84,581.15,134.61Z"/><path class="cls-3" d="M859.31,4.87S847.68,11.31,846,15.1a10.11,10.11,0,0,0-.77,6.66L855,14.33S862.71,4.87,859.31,4.87Z"/><path class="cls-3" d="M856.5,46.83l8.7,3.07-11.26,10Z"/><path class="cls-3" d="M1217.57,90.08l-7.42,5.63,1,1.54,5.38-1.8Z"/><path class="cls-3" d="M1217.06,103.39l1.79,1.28-6.14,6.65-1-2.3Z"/><path class="cls-4" d="M342.7,10.88q-.1,1.24-.09,2.49a9.69,9.69,0,0,0,.55,3.25c.14.34.28.69.43,1,.29.7.6,1.41.92,2.14.46,1.08.93,2.18,1.34,3.28a23,23,0,0,1,.95,3.26,10.4,10.4,0,0,1,.17,3.1,6.33,6.33,0,0,1-.49,1.91,6.43,6.43,0,0,1-1.13,1.74c.76.44,1.49.91,2.2,1.42a27.63,27.63,0,0,1,4.81,4.42c.57.66,1.11,1.35,1.62,2.06a28.06,28.06,0,0,1,2,3.35,26.44,26.44,0,0,1,2,4.85,11.61,11.61,0,0,1-6.23,5.22,10.86,10.86,0,0,1-2.7.59c.05.52.12,1,.2,1.55a36.26,36.26,0,0,0,1.46,6.07c.33,1,.71,2,1.12,2.92s.87,1.89,1.36,2.81,1,1.82,1.59,2.69a36.21,36.21,0,0,0,4.94,6L344.14,91.91q4.5,1.84,8.82,4.09a111.66,111.66,0,0,1,23.85,16.64c-1.43.09-2.93.24-4.45.48-.6.09-1.21.2-1.81.32-1.21.24-2.42.54-3.59.89A27,27,0,0,0,362.8,116l-.76.4c-.49.27-1,.56-1.43.87a12.74,12.74,0,0,0-2.9,2.68,10,10,0,0,0-.84,1.27c-.12.22-.23.45-.33.68a8.78,8.78,0,0,0-.78,3.89,9.07,9.07,0,0,0,.09,1.28,9.73,9.73,0,0,0,1.19,3.43,19.22,19.22,0,0,0,5.24,5.52c1.07.83,2.21,1.64,3.36,2.46l1.15.82c.77.55,1.53,1.11,2.27,1.68a15.89,15.89,0,0,0,5.31-4.32,20.56,20.56,0,0,0,1.69-2.35,28.66,28.66,0,0,0,4.09-12.66,85,85,0,0,0,.07-9.31c0-1.24-.09-2.49-.13-3.73s-.06-2.48-.06-3.72,0-2.46.11-3.68a33,33,0,0,1,1.71-9c.17-.47.35-.93.56-1.38a9,9,0,0,1,1.6-2.47,5.78,5.78,0,0,1,1.13-.91c5.49-3.39,11,4.36,12.75,10.56.11.39.23.78.36,1.18s.28.8.44,1.2.33.81.51,1.21c.27.6.56,1.19.88,1.77a18.23,18.23,0,0,0,2.56,3.66c.13.15.27.29.41.43a7.09,7.09,0,0,0,4.7,2.36,5.35,5.35,0,0,0,2.63-.63,5.08,5.08,0,0,0,.59-.35,5.9,5.9,0,0,0,1.76-1.86,8.67,8.67,0,0,0,.82-1.81,24.17,24.17,0,0,0,.93-5c.06-.51.11-1,.17-1.52a18.68,18.68,0,0,1,1.45-6.25,7.35,7.35,0,0,1,.67-1.1,6.46,6.46,0,0,1,.88-.93,5.82,5.82,0,0,1,1.12-.73h0a12.23,12.23,0,0,0,6.83,4.92,16.11,16.11,0,0,0,5.16.64,17.93,17.93,0,0,0,6.83-1.61A14.7,14.7,0,0,0,443,89.45c-3.35-2.27-6.68-4.54-9.86-6.8q-2.39-1.7-4.64-3.39c-1.49-1.13-2.93-2.26-4.29-3.39C411.75,65.51,360.79,4.09,353.51,1a1.53,1.53,0,0,0-1,0,7,7,0,0,0-1.45.59c-.19.09-.38.2-.59.32a32.83,32.83,0,0,0-2.83,1.86c-1.33,1-2.85,2.14-4.52,3.52-.06.37-.12.75-.17,1.15C342.87,9.21,342.77,10.05,342.7,10.88ZM583.38,87.72c.41.64.76,1.16,1,1.52a2.06,2.06,0,0,0,.46.56,8.65,8.65,0,0,0-.88,0,8.46,8.46,0,0,0-.85.16,7.79,7.79,0,0,0-1.64.58c-.26.13-.52.27-.76.42a9,9,0,0,0-1.4,1.06,9.75,9.75,0,0,0-1.18,1.3,9.13,9.13,0,0,0-1.24,2.3,7.93,7.93,0,0,0-.25.83,7.35,7.35,0,0,0-.19,2.6,16.87,16.87,0,0,1,3.17.24c.53.09,1.06.21,1.58.35a12.13,12.13,0,0,1,1.46.54,6.82,6.82,0,0,1,.66.34,5.77,5.77,0,0,1,1.13.83,4.15,4.15,0,0,1,.44.49,3.31,3.31,0,0,1,.59,1.15,3.8,3.8,0,0,1-.44,3.08,4.51,4.51,0,0,1-1.24,1.26,21.35,21.35,0,0,1-4.71,2.15,20.53,20.53,0,0,0-2.9,1.33,7.42,7.42,0,0,0-1.54,1.2,4.49,4.49,0,0,0-1,1.62c-1.16,3.4,2.38,6.52,5.68,7.93,2.68,1.15,5.81,2.25,7.47,4.46a5.55,5.55,0,0,1,.9,1.72c-.22.31-.45.63-.7.93a24,24,0,0,1-2.54,2.6c-1.22,1.1-2.51,2.16-3.65,3.26a17.74,17.74,0,0,0,1.56,1.44c.28.22.56.44.84.64a15.57,15.57,0,0,0,1.78,1.11,13.81,13.81,0,0,0,1.84.83,11.09,11.09,0,0,0,1.88.5,8.94,8.94,0,0,0,1.86.11,9,9,0,0,0,.91-.1,8.7,8.7,0,0,0,.88-.22,7,7,0,0,0,2.47-1.4q.25-6.65.52-13.3a4.42,4.42,0,0,1,1.85-.45,5.55,5.55,0,0,1,2.43.56c2,.91,4,2.8,5.9,4.54.39.35.77.7,1.16,1a17.62,17.62,0,0,0,2.32,1.72,6.08,6.08,0,0,0,2.9,1,4,4,0,0,0,2.33-.67L619.77,119q-1.23-1.14-2.49-2.34c-1.25-1.19-2.53-2.41-3.81-3.65l-2.58-2.48L607,106.77l-2.57-2.47c-3-2.85-5.94-5.61-8.72-8.09-.8-.71-1.58-1.4-2.35-2.06-.38-.34-.76-.66-1.14-1-.75-.63-1.49-1.23-2.21-1.81s-1.41-1.12-2.09-1.62c-1-.76-2-1.43-2.9-2a21.74,21.74,0,0,0-2.58-1.44ZM859.49,1.29a8.09,8.09,0,0,1,.19,2,9.43,9.43,0,0,1-.08,1.16,5.69,5.69,0,0,1-.34,1.41,6.36,6.36,0,0,1-.66,1.3,11.67,11.67,0,0,1-2,2.34c-.62.55-1.28,1.07-1.95,1.56s-1.41,1-2.12,1.45A29.45,29.45,0,0,0,847,16.7a6.05,6.05,0,0,0-.7,1,3.12,3.12,0,0,0-.31,2.63,4.66,4.66,0,0,0,.59,1.18l1.14.19a35.47,35.47,0,0,1,4.65,1.15c.75.25,1.49.53,2.21.85.36.16.7.33,1,.51a13.42,13.42,0,0,1,1.9,1.19,8.05,8.05,0,0,1,3.32,5.29c0,.24.06.47.08.7a9.07,9.07,0,0,1-.14,2.08c0,.23-.08.45-.14.68a30.41,30.41,0,0,1-1.37,4.07c-.27.68-.52,1.36-.75,2-.15.45-.28.91-.39,1.37a7.13,7.13,0,0,0-.2,1.44,9,9,0,0,0,.4,3c.75,2.35,2.46,4.21,4.79,3.75A22.45,22.45,0,0,0,859.34,53c-.56.62-1.09,1.26-1.59,1.93A24.07,24.07,0,0,0,856.38,57a23.19,23.19,0,0,0-2.67,7,20.71,20.71,0,0,0-.36,2.47l2.63,0c.88,0,1.76,0,2.64.07a43.59,43.59,0,0,1,7.81.91c.84.18,1.68.41,2.49.67a20.87,20.87,0,0,1,4.68,2.15,15.42,15.42,0,0,1,5.88,7,13.79,13.79,0,0,1,1,3.74,9.66,9.66,0,0,1-1.82,7.09,8.17,8.17,0,0,1-.61.71c-.21.23-.44.46-.67.68.49,1.06,1,2.13,1.45,3.19a26.28,26.28,0,0,0,2,3.66,10,10,0,0,0,2,2.27,8.33,8.33,0,0,0,.84.58,6.8,6.8,0,0,0,3.65,1l.61,0a8.58,8.58,0,0,0,1.8-.43,10.16,10.16,0,0,0,1.17-.52,12,12,0,0,0,1.15-.68,16.76,16.76,0,0,0,2.17-1.77,23.3,23.3,0,0,0,2.85-3.42c.28-.42.55-.84.81-1.27s.51-.87.74-1.3.44-.88.64-1.32.39-.88.56-1.32c.5-1.3,1-2.67,1.66-4A26.62,26.62,0,0,1,907,75.61a9,9,0,0,1,7-2.71,11,11,0,0,1,1.15.17,9.54,9.54,0,0,1,4,2,24.08,24.08,0,0,1,4.62,5.45c.46.69.92,1.4,1.36,2.09.23.35.45.7.67,1,.45.68.9,1.36,1.36,2a13.83,13.83,0,0,0,3.57,3.42c3.87,2.6,8.91,3.47,11.22.26a5.87,5.87,0,0,0,.57-1A7.3,7.3,0,0,0,942.9,87c.1-.47.17-.94.23-1.42s.13-1,.21-1.42a8.21,8.21,0,0,1,.35-1.38,5.73,5.73,0,0,1,3.43-3.63,9.77,9.77,0,0,1,5.36-.25c.49.1,1,.22,1.48.36l.74.23a21.64,21.64,0,0,1,2.23.9,23.18,23.18,0,0,1,5.42,3.46c.39.34.77.69,1.12,1A45.68,45.68,0,0,0,967,88.07c.42.34.85.68,1.29,1s.87.65,1.32,1c.67.46,1.36.89,2,1.27.46.26.92.5,1.39.72a18.67,18.67,0,0,0,2.07.84c3.21,1,6.31.83,8.67-1.74,3.13-5.85,1.73-9.22,1.73-9.22a3.72,3.72,0,0,0,4.35.51c-3.05-3.26-6.22-6.83-9.32-10.05-4.12-4.3-8.19-8.48-12-12.25-2.85-2.84-5.55-5.45-8-7.73-1.63-1.51-3.16-2.88-4.55-4.07-.35-.3-.68-.59-1-.86-1-.82-1.9-1.54-2.72-2.14l-.78-.55c-.51-.34-1-.63-1.38-.86l-.58-.29c-11.45-5.2-30.17-1-36.41-2.08a8.35,8.35,0,0,1-3.12-1.7c-.65-.49-1.35-1.06-2.1-1.72-1.13-1-2.38-2.14-3.73-3.43-2.25-2.16-4.77-4.69-7.47-7.39L893.31,24c-2.27-2.25-4.65-4.55-7.07-6.8A128,128,0,0,0,871.41,5,49,49,0,0,0,864.19.9a8,8,0,0,0-3.56-.6,13.93,13.93,0,0,0-1.4.12A5.13,5.13,0,0,1,859.49,1.29ZM1218,88.09a11.32,11.32,0,0,1-.33,1.83c-.56,2.17-2.3,3.71-4.24,5-.64.42-1.31.8-2,1.17a16.79,16.79,0,0,1,2.79,1.37,13.13,13.13,0,0,1,1.91,1.39,8,8,0,0,1,1.44,1.64,4.79,4.79,0,0,1,.56,1.19,3.63,3.63,0,0,1-.21,2.59,5.63,5.63,0,0,1-1.1,1.51l-.7.67-.72.66a7.48,7.48,0,0,0-1.19,1.38,3.15,3.15,0,0,0-.35.77,2.5,2.5,0,0,0-.09.86,3,3,0,0,0,1,2,8.62,8.62,0,0,0,.71.63c1.15.91,2.58,1.7,3.24,3a5.09,5.09,0,0,1-.22,4.33c-.17.44-.38.88-.58,1.32l-.42.86c-.06.14-.13.27-.19.42a6.85,6.85,0,0,0-.38,1,6.94,6.94,0,0,0-.23,3.17,3.45,3.45,0,0,1,1.11-.61,3.52,3.52,0,0,1,3.34.6,7.15,7.15,0,0,1,.73.61,45.09,45.09,0,0,1,3.45,4.13c1.42,1.71,3,3.16,5,3.22a4.08,4.08,0,0,0,2.52-.83,6.21,6.21,0,0,0,2.38-3.89,9.75,9.75,0,0,0,.06-2.75,26.11,26.11,0,0,0-1.09-4.52c.39,0,.78-.07,1.17-.08,3.5-.09,6.92.92,10.34,2l2.28.71c.77.23,1.53.45,2.3.65s1.54.39,2.31.54a17.92,17.92,0,0,0,3.27.3c.56,0,1.12,0,1.67-.08a16.34,16.34,0,0,0,3.26-.63,13.13,13.13,0,0,0,1.52-.56,11,11,0,0,0,2.66-1.59c-.64-.61-1.67-1.61-3-2.87-.66-.64-1.41-1.34-2.21-2.1l-1.26-1.18-2.76-2.58-3.05-2.82-3.26-3-3.41-3.06c-1.72-1.53-3.48-3.08-5.22-4.59-2.33-2-4.63-4-6.83-5.73-1.1-.89-2.17-1.75-3.2-2.54-1.54-1.2-3-2.28-4.34-3.19a36.69,36.69,0,0,0-3.57-2.23,12.29,12.29,0,0,0-1.85-.83,3.89,3.89,0,0,0-2.07.07q-.42.11-.9.27c0,.15,0,.32,0,.49ZM1594,57.7l-3.29.46a5.46,5.46,0,0,1-1,0,8.1,8.1,0,0,1-1.1-.16,19.71,19.71,0,0,1-5.33-2.22c-1-.55-2-1.19-3.13-1.89-.54-.35-1.09-.72-1.65-1.1-1.12-.77-2.27-1.59-3.45-2.44s-2.39-1.76-3.6-2.68l-1.84-1.39-3.71-2.84c-1.24-.95-2.49-1.89-3.72-2.81s-2.46-1.83-3.67-2.7-2.4-1.69-3.56-2.47c-5.22-3.48-9.89-5.86-13.15-5.6a5.09,5.09,0,0,0-1,.19l-.34.12-.35.14a6,6,0,0,1,.46,1.07,6.13,6.13,0,0,1-.8,5.47,4.17,4.17,0,0,1-.77.8,4.22,4.22,0,0,1-1,.58l4.75,2.25a3.29,3.29,0,0,1,.94,1.87,4.18,4.18,0,0,1,0,1.06,7.66,7.66,0,0,1-.92,2.74,12.48,12.48,0,0,1-1.38,2c-.13.15-.26.29-.4.43l-.4.42-.81.88c-.26.3-.53.61-.78.92s-.5.64-.72,1a7.71,7.71,0,0,0-1,2,4.67,4.67,0,0,0-.22,1,4,4,0,0,0,.16,1.62,5.52,5.52,0,0,0,1.86,2.55l.51.41q.53.39,1.08.75c1.44,1,2.92,1.9,4.41,2.8s3,1.76,4.54,2.59q4.61,2.49,9.42,4.54a5.4,5.4,0,0,1-.27,3.25,15.7,15.7,0,0,1-1.17,2.36,20.81,20.81,0,0,0-2.33,4.74,5.26,5.26,0,0,0-.17,1.63,3.78,3.78,0,0,0,.12.82c.73,3.06,4.44,4.58,6.12,7.1a4.61,4.61,0,0,1,.78,1.93,4.2,4.2,0,0,1,0,1.5,5.18,5.18,0,0,1-.5,1.36c.25.15.51.3.78.43a10.51,10.51,0,0,0,4.3,1.08,6.76,6.76,0,0,0,.9,0,11,11,0,0,0,4.32-1,9.7,9.7,0,0,0,2.88-2.07,11.82,11.82,0,0,0,1.72-2.32,22.67,22.67,0,0,0,1.28-2.62c.75-1.8,1.37-3.7,2.17-5.48a15.54,15.54,0,0,1,1.46-2.61c.14-.21.29-.41.44-.61a13.37,13.37,0,0,1,1-1.14,8.43,8.43,0,0,1,3.58-2.28,6,6,0,0,1,2.1-.23,6.32,6.32,0,0,1,.86.11,34.16,34.16,0,0,1,4.87,1.88,8,8,0,0,0,.83.27,7.49,7.49,0,0,0,1.41.28c.24,0,.48,0,.71,0a8.39,8.39,0,0,0,1.42-.06,10.69,10.69,0,0,0,2.09-.46V56.77ZM1350.49,85.12c-.31,1.32-.63,2.64-.94,4a29.81,29.81,0,0,1,2.83,4.44c.4.78.77,1.57,1.11,2.39a31.48,31.48,0,0,1,1.59,5,30.09,30.09,0,0,1,.69,7.86c0,.31,0,.62,0,.94s0,.63,0,.94c0,.15,0,.31,0,.46a3.42,3.42,0,0,0,.44,1.28,3.63,3.63,0,0,0,1.2,1.17,7.11,7.11,0,0,0,1.58.68,15.49,15.49,0,0,0,2.52.54c.85.12,1.71.18,2.58.22,1.73.09,3.48.1,5.19.32a15,15,0,0,1,2.58.56c2.54.81,4.83,2.36,5.62,4.83a6.25,6.25,0,0,1,.28,2.5,8.92,8.92,0,0,1-.61,2.44,26.58,26.58,0,0,1-2.1,4,38.08,38.08,0,0,0-2.24,4.06,15.48,15.48,0,0,0,2.87-.64c.46-.16.91-.33,1.35-.53a11.92,11.92,0,0,0,2.45-1.48,10.12,10.12,0,0,0,2-2,8.76,8.76,0,0,0,.79-1.22c.25-.44.48-.91.72-1.4l.71-1.49c.23-.5.48-1,.73-1.49s.53-.95.81-1.38a9,9,0,0,1,.89-1.17,5.33,5.33,0,0,1,1-.87,3.24,3.24,0,0,1,1.84-.51,4.31,4.31,0,0,1,.71.09,3.05,3.05,0,0,1,.7.24,5.24,5.24,0,0,1,1.74,1.36c.34.39.66.8,1,1.22s.62.84.94,1.23a5.93,5.93,0,0,0,1.86,1.48l.36.16a3.6,3.6,0,0,0,1.44.29,2.11,2.11,0,0,0,1.55-.7,7.23,7.23,0,0,1,.16-5.12,9.23,9.23,0,0,1,.81-1.56c.16-.24.34-.48.52-.71a8.16,8.16,0,0,1,2.71-2.17,6.68,6.68,0,0,1,2.51-.66,8.42,8.42,0,0,1,.87,0c3.18.16,6.3,2,9.37,2.41a8.36,8.36,0,0,0,1.66,0,6.3,6.3,0,0,0,1.65-.34c2.55-.9,3.75-3,4.49-5.57q-2.26-2.34-4.59-4.61t-4.75-4.45c-1-.08-2-.2-2.91-.34a33.94,33.94,0,0,1-5.37-1.22,24.68,24.68,0,0,1-2.42-.89c-1.17-.5-2.41-.85-6.16-2.18l-4.74-1.69c-2.31-.82-4.86-1.73-7.51-2.69l-4-1.46c-8.18-3-16.72-6.12-22.06-8.26-1.33-.54-2.46-1-3.34-1.4a2.44,2.44,0,0,0-.46-.14,3,3,0,0,0-.52-.07,5.44,5.44,0,0,0-.57,0,8.09,8.09,0,0,0-2,.54c-.54.21-1.07.46-1.59.72ZM6.6,75.89c3.24-2.72,12.25,7.44,18.49,10.45a16.66,16.66,0,0,0,11.2,1.14C9.69,59.83.51,56.49.51,56.49V78S3.36,78.61,6.6,75.89Z"/><path class="cls-4" d="M1058.66,129.49s-2.61,10.59.51,12,5.69-.57,8.44-2.05,6.4-.06,7.68,4.09,4.17,11.7,10.24,6.91,4.14-6.83,7.42-5.63,9.48,7.08,12,1.79,0-8.7,2.3-9.46,11.4,5.14,15.87-1.28c0,0-13.42-10.35-20-15.36s-16.57-12.68-24.06-4.09S1061.72,129.49,1058.66,129.49Z"/><path class="cls-3" d="M1083.22,113.37s-2.64,6.14.52,8.95,8.86,5.12,5.37,8.7-6.87,1.41-4.86,6.15-1.24,11.1,1.53,13.05c0,0-2.55,3-5.88,1.28-3.49-1.85-4.89-10.61-6.91-11.52s-3.89-1.56-7.68.77c-3.62,2.23-8.94,2.35-7.68-5.63s1-5.63,1-5.63a22,22,0,0,0,13.31-6.4C1078,117,1082.22,113.49,1083.22,113.37Z"/></g><path id="Shape_4_copy" data-name="Shape 4 copy" class="cls-5" d="M.51,134.35s52.55,2.22,100.57,53c46.77,49.42,118.3-1.1,145.61-11.77s46.9-24,74.21-12.79,71.86,62.66,100.31,30.45c44.7-50.6,66.55-92.17,106.46-61.16s95,75.34,139,58.34S729.1,138,790,176.06,907.56,162,949.39,144.84c37-15.14,49-8.06,60.9-.76s60.19,63.85,76.52,64.74,53.88-16.79,68.07-10.49,44.23,39.08,85.72-20,55-84.34,101.85-38.64S1406.68,188.28,1441,163s66-1.79,66-1.79,30.59-27.89,93.65-27.89V303.25H.51Z"/><g id="hill_tress" data-name="hill tress"><g id="hill"><path class="cls-5" d="M.51,134.35s52.55,2.22,100.57,53c46.77,49.42,118.3-1.1,145.61-11.77s46.9-24,74.21-12.79,71.86,62.66,100.31,30.45c44.7-50.6,66.55-92.17,106.46-61.16s95,75.34,139,58.34S729.1,138,790,176.06,907.56,162,949.39,144.84c37-15.14,49-8.06,60.9-.76s60.19,63.85,76.52,64.74,53.88-16.79,68.07-10.49,44.23,39.08,85.72-20,55-84.34,101.85-38.64S1406.68,188.28,1441,163s66-1.79,66-1.79,30.59-27.89,93.65-27.89v175H.51Z"/><path class="cls-6" d="M975.23,136.91S970.35,162.75,985,174s30.31,8.51,35.31,16.12,4.57,35.82,18.17,49.39,17.4,76.51,17.4,76.51l-172.22.13s-65-126.18-44.78-127.06C879.74,187.33,933.12,145,975.23,136.91Z"/><path class="cls-6" d="M736,159.17s6.55,54.74,36.08,61.93c47.55,11.58,75,97.37,75,97.37l-224.94.13s12.58-118,24.31-124.11C704.3,164.41,736,159.17,736,159.17Z"/><path class="cls-6" d="M492.86,122.58s1.95,30.56,7.17,40.94,14.4,13.71,12,34.55,37.76,30.24,47.85,38.9-40.62,24.23-69.61,19.45S378.52,274.89,389.74,249C434.17,146.36,492.86,122.58,492.86,122.58Z"/><path class="cls-6" d="M310.41,159.94S323,169.63,313,195s-2.07,60,22.26,69.35,31.47,49.9,31.47,49.9l-187.57.13s-58.64-104.72-43.5-107.61C210.67,192.47,283,150.65,310.41,159.94Z"/><path class="cls-6" d="M11.77,135.89s11.52,14.44,6.4,39.15,7.57,56.54,19.7,64,24.31,71.66,24.31,71.66l-61.67.25V133.33Z"/><path class="cls-6" d="M1290.25,119s-4,34.36,10.49,53.22,46.6,50.47,65.51,53.74,51.54,36.37,51.44,65.26-1.54,20.09-1.54,20.09l-330.37.12s89.81-86.09,119.77-118.73C1231.79,164.09,1290.25,119,1290.25,119Z"/><path class="cls-6" d="M1506.48,161.73s-15.73,10.23-16.63,35.32c-.5,14,32.67,53.68,25.33,62.95s-53.3,22.88-33.52,38.38,119-5.63,119-5.63V133.33S1544.24,131.23,1506.48,161.73Z"/></g><g id="trees"><path class="cls-7" d="M887.21,199.35A14.87,14.87,0,0,1,880,201.4c-4.16.07-6.73-.51-8.19-2.31s4.81-26,6.91-26.61S887.82,193.44,887.21,199.35Z"/><path id="Shape_12_copy_20" data-name="Shape 12 copy 20" class="cls-7" d="M808.39,213.68a14.84,14.84,0,0,1-7.17,2c-4.16.07-6.72-.51-8.19-2.31s4.82-26,6.91-26.61S809,207.77,808.39,213.68Z"/><path id="Shape_12_copy_21" data-name="Shape 12 copy 21" class="cls-7" d="M727.27,180.93a14.83,14.83,0,0,1-7.17,2c-4.16.08-6.72-.5-8.19-2.3s4.82-26,6.91-26.61S727.88,175,727.27,180.93Z"/><path id="Shape_12_copy_22" data-name="Shape 12 copy 22" class="cls-7" d="M711.66,195.51a14.74,14.74,0,0,1-7.17,2.05c-4.16.08-6.72-.51-8.19-2.3s4.82-26,6.91-26.62S712.27,189.61,711.66,195.51Z"/><path id="Shape_12_copy_23" data-name="Shape 12 copy 23" class="cls-7" d="M689.91,191.67a14.74,14.74,0,0,1-7.17,2.05c-4.16.08-6.73-.5-8.19-2.3s4.82-26,6.91-26.62S690.52,185.77,689.91,191.67Z"/><path id="Shape_12_copy_25" data-name="Shape 12 copy 25" class="cls-7" d="M607.51,199.35a14.84,14.84,0,0,1-7.17,2.05c-4.16.07-6.73-.51-8.19-2.31s4.82-26,6.91-26.61S608.12,193.44,607.51,199.35Z"/><path id="Shape_12_copy_26" data-name="Shape 12 copy 26" class="cls-7" d="M562.72,185.28a14.79,14.79,0,0,1-7.16,2c-4.16.08-6.73-.5-8.19-2.3s4.81-26,6.91-26.61S563.34,179.37,562.72,185.28Z"/><path id="Shape_12_copy_27" data-name="Shape 12 copy 27" class="cls-7" d="M552,199.09a14.74,14.74,0,0,1-7.17,2c-4.16.08-6.73-.5-8.19-2.3s4.82-26,6.91-26.62S552.59,193.19,552,199.09Z"/><path id="Shape_12_copy_28" data-name="Shape 12 copy 28" class="cls-7" d="M534.32,166.59a14.7,14.7,0,0,1-7.17,2c-4.15.08-6.72-.5-8.18-2.3s4.81-26,6.9-26.61S534.93,160.69,534.32,166.59Z"/><path id="Shape_12_copy_29" data-name="Shape 12 copy 29" class="cls-7" d="M505.91,162.5a14.81,14.81,0,0,1-7.16,2.05c-4.16.07-6.73-.51-8.19-2.31s4.81-26,6.91-26.61S506.53,156.59,505.91,162.5Z"/><path id="Shape_12_copy_30" data-name="Shape 12 copy 30" class="cls-7" d="M473.16,158.41a14.8,14.8,0,0,1-7.17,2c-4.15.08-6.72-.5-8.18-2.3s4.81-26,6.9-26.61S473.77,152.5,473.16,158.41Z"/><path id="Shape_12_copy_31" data-name="Shape 12 copy 31" class="cls-7" d="M440.92,196.54a14.86,14.86,0,0,1-7.17,2c-4.16.08-6.73-.5-8.19-2.3s4.82-26,6.91-26.61S441.53,190.63,440.92,196.54Z"/><path id="Shape_12_copy_33" data-name="Shape 12 copy 33" class="cls-7" d="M377.2,214.19a14.74,14.74,0,0,1-7.17,2.05c-4.16.08-6.73-.5-8.19-2.3s4.82-26,6.91-26.62S377.81,208.29,377.2,214.19Z"/><path id="Shape_12_copy_34" data-name="Shape 12 copy 34" class="cls-7" d="M285.07,196.54a14.79,14.79,0,0,1-7.16,2c-4.16.08-6.73-.5-8.19-2.3s4.81-26,6.91-26.61S285.69,190.63,285.07,196.54Z"/><path id="Shape_12_copy_35" data-name="Shape 12 copy 35" class="cls-7" d="M254.88,209.07a14.74,14.74,0,0,1-7.17,2.05c-4.16.08-6.73-.5-8.19-2.3s4.82-26,6.91-26.62S255.49,203.17,254.88,209.07Z"/><path id="Shape_12_copy_37" data-name="Shape 12 copy 37" class="cls-7" d="M43.5,162a14.81,14.81,0,0,1-7.16,2c-4.16.07-6.73-.51-8.19-2.31s4.81-26,6.91-26.61S44.12,156.08,43.5,162Z"/><path id="Shape_12_copy_38" data-name="Shape 12 copy 38" class="cls-7" d="M64,179.65a14.86,14.86,0,0,1-7.17,2c-4.16.08-6.73-.5-8.19-2.3s4.81-26,6.91-26.61S64.59,173.74,64,179.65Z"/><path id="Shape_12_copy_36" data-name="Shape 12 copy 36" class="cls-7" d="M274.84,235.43a14.74,14.74,0,0,1-7.17,2c-4.16.08-6.73-.51-8.19-2.3s4.82-26,6.91-26.62S275.45,229.53,274.84,235.43Z"/><path id="Shape_12_copy_32" data-name="Shape 12 copy 32" class="cls-7" d="M459.85,218a14.81,14.81,0,0,1-7.16,2.05c-4.16.07-6.73-.51-8.19-2.31s4.81-26,6.91-26.61S460.47,212.12,459.85,218Z"/><path id="Shape_12_copy_24" data-name="Shape 12 copy 24" class="cls-7" d="M744.67,213.94a14.83,14.83,0,0,1-7.17,2c-4.15.08-6.72-.5-8.18-2.3s4.81-26,6.9-26.61S745.28,208,744.67,213.94Z"/><path id="Shape_12_copy" data-name="Shape 12 copy" class="cls-7" d="M908.7,209.07a14.7,14.7,0,0,1-7.16,2.05c-4.16.08-6.73-.5-8.19-2.3s4.81-26,6.91-26.62S909.32,203.17,908.7,209.07Z"/><path id="Shape_12_copy_2" data-name="Shape 12 copy 2" class="cls-7" d="M930.45,228.27a14.69,14.69,0,0,1-7.16,2c-4.16.08-6.73-.5-8.19-2.3s4.81-26,6.91-26.61S931.07,222.36,930.45,228.27Z"/><path id="Shape_12_copy_3" data-name="Shape 12 copy 3" class="cls-7" d="M941.71,191.93a14.81,14.81,0,0,1-7.16,2c-4.16.07-6.73-.51-8.19-2.31s4.81-26,6.91-26.61S942.33,186,941.71,191.93Z"/><path id="Shape_12_copy_4" data-name="Shape 12 copy 4" class="cls-7" d="M962.44,152a14.81,14.81,0,0,1-7.17,2.05c-4.15.07-6.72-.51-8.18-2.31s4.81-26,6.91-26.61S963.05,146.1,962.44,152Z"/><path id="Shape_12_copy_5" data-name="Shape 12 copy 5" class="cls-7" d="M978.05,191.93a14.81,14.81,0,0,1-7.17,2c-4.15.07-6.72-.51-8.18-2.31s4.81-26,6.91-26.61S978.66,186,978.05,191.93Z"/><path id="Shape_12_copy_6" data-name="Shape 12 copy 6" class="cls-7" d="M1055.33,194.49a14.81,14.81,0,0,1-7.16,2c-4.16.07-6.73-.51-8.19-2.31s4.81-26,6.91-26.61S1056,188.58,1055.33,194.49Z"/><path id="Shape_12_copy_7" data-name="Shape 12 copy 7" class="cls-7" d="M1132.1,211.12a14.7,14.7,0,0,1-7.16,2c-4.16.08-6.73-.51-8.19-2.3s4.81-26,6.91-26.62S1132.72,205.22,1132.1,211.12Z"/><path id="Shape_12_copy_8" data-name="Shape 12 copy 8" class="cls-7" d="M1153.85,199.35a14.81,14.81,0,0,1-7.16,2.05c-4.16.07-6.73-.51-8.19-2.31s4.81-26,6.91-26.61S1154.47,193.44,1153.85,199.35Z"/><path id="Shape_12_copy_9" data-name="Shape 12 copy 9" class="cls-7" d="M1234.46,206.52a14.79,14.79,0,0,1-7.16,2c-4.16.08-6.73-.5-8.19-2.3s4.81-26,6.91-26.61S1235.08,200.61,1234.46,206.52Z"/><path id="Shape_12_copy_10" data-name="Shape 12 copy 10" class="cls-7" d="M1246,218a14.84,14.84,0,0,1-7.17,2.05c-4.16.07-6.73-.51-8.19-2.31s4.82-26,6.91-26.61S1246.59,212.12,1246,218Z"/><path id="Shape_12_copy_11" data-name="Shape 12 copy 11" class="cls-7" d="M1267.47,189.11a14.7,14.7,0,0,1-7.16,2c-4.16.08-6.73-.5-8.19-2.3s4.81-26,6.91-26.62S1268.09,183.21,1267.47,189.11Z"/><path id="Shape_12_copy_12" data-name="Shape 12 copy 12" class="cls-7" d="M1335.8,177.09a14.72,14.72,0,0,1-7.17,2c-4.16.08-6.72-.5-8.19-2.3s4.82-26,6.91-26.61S1336.41,171.18,1335.8,177.09Z"/><path id="Shape_12_copy_13" data-name="Shape 12 copy 13" class="cls-7" d="M1355.25,156.36a14.84,14.84,0,0,1-7.17,2c-4.16.07-6.73-.51-8.19-2.31s4.82-26,6.91-26.61S1355.86,150.45,1355.25,156.36Z"/><path id="Shape_12_copy_14" data-name="Shape 12 copy 14" class="cls-7" d="M1422,191.67a14.74,14.74,0,0,1-7.17,2.05c-4.16.08-6.73-.5-8.19-2.3s4.82-26,6.91-26.62S1422.65,185.77,1422,191.67Z"/><path id="Shape_12_copy_15" data-name="Shape 12 copy 15" class="cls-7" d="M1458.37,174.53a14.69,14.69,0,0,1-7.16,2c-4.16.08-6.73-.5-8.19-2.3s4.81-26,6.91-26.61S1459,168.62,1458.37,174.53Z"/><path id="Shape_12_copy_16" data-name="Shape 12 copy 16" class="cls-7" d="M1474,189.11a14.7,14.7,0,0,1-7.16,2c-4.16.08-6.73-.5-8.19-2.3s4.81-26,6.91-26.62S1474.6,183.21,1474,189.11Z"/><path id="Shape_12_copy_17" data-name="Shape 12 copy 17" class="cls-7" d="M1529,223.66a14.81,14.81,0,0,1-7.16,2.05c-4.16.07-6.73-.51-8.19-2.31s4.81-26,6.91-26.61S1529.62,217.75,1529,223.66Z"/><path id="Shape_12_copy_18" data-name="Shape 12 copy 18" class="cls-7" d="M1554.59,177.6a14.81,14.81,0,0,1-7.16,2.05c-4.16.07-6.73-.51-8.19-2.31s4.81-26,6.91-26.61S1555.21,171.69,1554.59,177.6Z"/><path id="Shape_12_copy_19" data-name="Shape 12 copy 19" class="cls-7" d="M1587.6,203.44a14.7,14.7,0,0,1-7.16,2.05c-4.16.08-6.73-.5-8.19-2.3s4.81-26,6.91-26.62S1588.22,197.54,1587.6,203.44Z"/></g></g><path class="cls-7" d="M1600.65,210.87s-30,3-50.41,7.67S1500.35,229.8,1430,215s-119.81,1.26-155.84,13.82-84.56,21.51-174.53-4.86-91.44-25.36-134.35-16.38S849.58,269,762.07,242.6s-219.26-39.76-273.56-18.94-162,65-300.68,21.24S.51,210.87.51,210.87v92.38H1600.65Z"/><path class="cls-8" d="M.51,233.13s37.05,1.15,147.14,12.79S328,277.12,389,278.17s227.55-44.57,302.22-40.69,225.83,41.4,372.07,37.87,302.81-31.63,377.2-35.06,160.19-7.16,160.19-7.16v90.59H.51Z"/></g></g></svg>